<?xml version="1.0" encoding="UTF-8"?>
<svg version="1.1" xmlns="http://www.w3.org/2000/svg" width="1024" height="1024">
 <!-- Rounded background that covers the entire SVG -->
 <rect width="1024" height="1024" rx="150" ry="150" fill="#EAE8E3"/>
<path d="M0 0 C337.92 0 675.84 0 1024 0 C1024 337.92 1024 675.84 1024 1024 C686.08 1024 348.16 1024 0 1024 C0 686.08 0 348.16 0 0 Z " fill="#EAE8E3" transform="translate(0,0)"/>
<path d="M0 0 C8.75794944 7.57803595 14.08766616 16.25710097 16.05859375 27.78125 C16.16017065 29.54151612 16.21637419 31.30478141 16.2355957 33.06787109 C16.25484856 34.61636246 16.25484856 34.61636246 16.27449036 36.19613647 C16.28187729 37.30445831 16.28926422 38.41278015 16.296875 39.5546875 C16.30494675 40.71062408 16.31301849 41.86656067 16.32133484 43.05752563 C16.33515688 45.50692251 16.34588742 47.9563385 16.35375977 50.40576172 C16.36523328 52.88824179 16.38561066 55.3706981 16.4152832 57.85302734 C16.83043075 92.60945797 16.83043075 92.60945797 7.75 103.078125 C7.19183594 103.64015625 6.63367188 104.2021875 6.05859375 104.78125 C5.44886719 105.40515625 4.83914063 106.0290625 4.2109375 106.671875 C-5.32833101 115.6990953 -17.39912198 118.31721522 -30.3125 117.96484375 C-42.81072449 117.09201084 -54.25307258 114.40996802 -62.94140625 104.78125 C-71.61483065 93.83578512 -73.41242605 81.83967462 -73.375 68.15625 C-73.38024185 67.00688965 -73.3854837 65.8575293 -73.3908844 64.67333984 C-73.39725672 62.26335451 -73.39603049 59.85333787 -73.38745117 57.44335938 C-73.37892619 53.78979391 -73.40779742 50.1377874 -73.43945312 46.484375 C-73.49090561 29.81106596 -73.08469743 15.51441629 -60.94140625 2.78125 C-45.1374229 -10.11706825 -16.876735 -12.63432638 0 0 Z " fill="#171816" transform="translate(738.94140625,560.21875)"/>
<path d="M0 0 C11.55 0 23.1 0 35 0 C42.41518986 24.01876715 49.30190015 48.18588111 56.02197266 72.4074707 C57.83239728 78.90606885 59.68591725 85.3911656 61.55944824 91.87182617 C62.84302239 96.31187915 64.12245494 100.75312325 65.40222168 105.1942749 C66.04659882 107.4254176 66.69313689 109.65593742 67.34191895 111.88580322 C68.26200038 115.04863499 69.17461228 118.21354217 70.0859375 121.37890625 C70.3647879 122.33006821 70.64363831 123.28123016 70.93093872 124.26121521 C71.18882172 125.1618721 71.44670471 126.06252899 71.71240234 126.99047852 C71.93777679 127.76778824 72.16315125 128.54509796 72.39535522 129.34596252 C73.1931099 132.84763969 73.55454163 136.43633302 74 140 C64.76 139.67 55.52 139.34 46 139 C44.865625 135.16375 43.73125 131.3275 42.5625 127.375 C42.20615479 126.17665527 41.84980957 124.97831055 41.48266602 123.74365234 C41.20092529 122.78410645 40.91918457 121.82456055 40.62890625 120.8359375 C40.34088135 119.86188965 40.05285645 118.8878418 39.75610352 117.88427734 C38.99062044 114.96422018 38.49627527 111.9776516 38 109 C24.14 109 10.28 109 -4 109 C-4.33 111.64 -4.66 114.28 -5 117 C-5.42837678 118.94713855 -5.89577207 120.88629541 -6.41015625 122.8125 C-6.6512915 123.72644531 -6.89242676 124.64039063 -7.14086914 125.58203125 C-7.44500732 126.70996094 -7.74914551 127.83789062 -8.0625 129 C-9.031875 132.63 -10.00125 136.26 -11 140 C-19.91 140 -28.82 140 -38 140 C-33.91957361 123.19292116 -29.30791543 106.5531801 -24.62413788 89.90733719 C-23.56818766 86.15169658 -22.51578617 82.39506242 -21.46337891 78.63842773 C-21.25286959 77.88704183 -21.04236027 77.13565592 -20.82547188 76.36150074 C-20.40043536 74.84436858 -19.97541004 73.32723328 -19.55039597 71.81009483 C-18.91557297 69.54445326 -18.28041775 67.27890506 -17.64517212 65.01338196 C-14.14876771 52.54242534 -10.66943951 40.06680565 -7.21240234 27.58486938 C-6.6577981 25.5831806 -6.10246925 23.58169243 -5.54638672 21.58041382 C-4.78696702 18.8470647 -4.02983794 16.11309219 -3.2734375 13.37890625 C-3.05456879 12.59256805 -2.83570007 11.80622986 -2.61019897 10.99606323 C-1.60105415 7.33693942 -0.74549887 3.72749437 0 0 Z " fill="#161715" transform="translate(492,371)"/>
<path d="M0 0 C0.89460938 -0.00773437 1.78921875 -0.01546875 2.7109375 -0.0234375 C13.99468966 0.00936411 23.90823547 2.49644262 32.66796875 10 C41.8315526 19.70975772 44.625 30.14489524 44.625 43.25 C35.715 43.25 26.805 43.25 17.625 43.25 C16.635 38.3 16.635 38.3 15.625 33.25 C13.71039956 29.19988367 11.99555872 27.12569332 7.9375 25.375 C2.05747425 23.54978755 -3.66202194 23.04351557 -9.25 25.9375 C-12.46340309 28.31541828 -13.663028 29.7055653 -15.375 33.25 C-16.16654415 38.94769165 -16.11140993 44.37550199 -14 49.75 C-7.6040617 55.84136981 -0.13848161 57.64094786 8.25 59.5625 C22.00892041 62.75087138 35.24674823 67.74712152 43.36328125 79.83984375 C49.25710126 90.3674257 49.8292386 103.60932483 46.69921875 115.20703125 C41.93447845 128.53899189 32.6263864 138.28798875 19.88671875 144.33984375 C6.96958288 149.53793124 -11.78143717 147.36661078 -24.375 142.25 C-34.22841858 137.6425565 -40.95562076 130.78849233 -44.75390625 120.5234375 C-46.87032805 113.50430753 -47.375 107.73831694 -47.375 100.25 C-36.98 99.755 -36.98 99.755 -26.375 99.25 C-26.375 98.92 -26.375 98.59 -26.375 98.25 C-24.395 98.25 -22.415 98.25 -20.375 98.25 C-20.28863281 99.13042969 -20.20226562 100.01085937 -20.11328125 100.91796875 C-19.36233041 108.06928864 -19.36233041 108.06928864 -16.125 114.3125 C-14.76375 115.2715625 -14.76375 115.2715625 -13.375 116.25 C-12.364375 116.9925 -11.35375 117.735 -10.3125 118.5 C-4.27859139 122.09466896 2.11492498 121.92516507 8.875 120.5 C13.84058112 118.84480629 15.45142108 116.92654132 18.375 112.75 C20.21669489 107.59325432 20.34663563 102.66606528 19.625 97.25 C17.82982277 94.16308423 17.82982277 94.16308423 15.625 92.25 C15.625 91.59 15.625 90.93 15.625 90.25 C9.93583932 88.22930322 4.23435434 86.61676641 -1.63476562 85.20898438 C-15.00916311 81.97022101 -30.43593567 78.08034114 -38.828125 66.19140625 C-45.20090836 55.62503844 -46.21810697 42.0131329 -43.75 30 C-38.70425319 16.23887234 -33.43917832 9.97855629 -20.4375 3.546875 C-13.47658151 0.59913911 -7.45738133 -0.06392041 0 0 Z " fill="#161715" transform="translate(306.375,367.75)"/>
<path d="M0 0 C1.5787793 0.01812744 1.5787793 0.01812744 3.18945312 0.03662109 C14.64908265 0.32968354 23.36937664 2.71201746 32.0625 10.5 C32.66707031 11.00144531 33.27164063 11.50289063 33.89453125 12.01953125 C41.21777336 18.57694412 45.15516273 26.94513601 46 36.6875 C46.15234375 39.98046875 46.15234375 39.98046875 46.0625 42.5 C45.0625 43.5 45.0625 43.5 42.47045898 43.61352539 C41.34454346 43.60828857 40.21862793 43.60305176 39.05859375 43.59765625 C37.84365234 43.59443359 36.62871094 43.59121094 35.37695312 43.58789062 C34.09755859 43.57951172 32.81816406 43.57113281 31.5 43.5625 C30.21673828 43.55798828 28.93347656 43.55347656 27.61132812 43.54882812 C24.42833978 43.53699545 21.24544238 43.52051068 18.0625 43.5 C17.88509277 42.36111328 17.88509277 42.36111328 17.70410156 41.19921875 C17.5387793 40.20535156 17.37345703 39.21148437 17.203125 38.1875 C17.04360352 37.20136719 16.88408203 36.21523438 16.71972656 35.19921875 C15.51181867 30.23836078 12.37692159 28.36632332 8.3125 25.6875 C2.75812916 23.65801835 -1.94265181 23.62952079 -7.375 26 C-8.220625 26.495 -9.06625 26.99 -9.9375 27.5 C-10.5975 27.5 -11.2575 27.5 -11.9375 27.5 C-12.246875 28.28375 -12.55625 29.0675 -12.875 29.875 C-13.9375 32.5 -13.9375 32.5 -14.9375 34.5 C-15.44252343 40.03042052 -15.67557257 44.91030524 -13.3125 50 C-6.99051537 56.65472066 0.11063544 58.15348669 8.8125 60.4375 C22.77697911 64.1050132 36.48416435 68.34582594 44.765625 81.12890625 C49.90320687 91.03499084 50.70048367 102.81551659 48.37890625 113.70703125 C47.44079231 116.42795092 46.35892388 118.93138446 45.0625 121.5 C44.63839844 122.36109375 44.21429687 123.2221875 43.77734375 124.109375 C38.81648084 133.22962436 30.82906126 140.73071776 21.0625 144.5 C5.77519629 148.30192059 -12.73142554 148.07022887 -27 140.75 C-36.50766344 134.93421787 -42.00073808 127.69479829 -44.91015625 116.88671875 C-45.9987731 112.01072794 -46.9375 107.50636675 -46.9375 102.5 C-37.6975 102.5 -28.4575 102.5 -18.9375 102.5 C-18.2775 105.47 -17.6175 108.44 -16.9375 111.5 C-14.18988294 116.51036052 -11.90543745 119.37803524 -6.37890625 121.06640625 C-0.07681402 122.18565783 6.95447761 122.51738533 13.125 120.5625 C17.35497797 117.59251546 18.80707061 114.45486038 20.0625 109.5 C20.77970769 104.15421488 20.76187934 99.97945629 18.4375 95.0625 C12.40593856 88.55476266 5.86367318 87.12361273 -2.5625 85.0625 C-16.83364365 81.54845826 -31.2012533 77.94583878 -39.6328125 64.87109375 C-45.56194884 53.50409236 -46.07383374 38.04710391 -42.375 25.8125 C-38.18537144 15.44791368 -30.73947145 8.03732425 -20.57788086 3.43017578 C-13.61581047 0.62187226 -7.46830259 -0.13772527 0 0 Z " fill="#181917" transform="translate(713.9375,366.5)"/>
<path d="M0 0 C61.10736842 0 61.10736842 0 72.0625 9.85546875 C79.89231383 18.28883073 81.3208343 27.04619421 81.21484375 38.29296875 C80.56516164 49.50293819 77.22384434 58.32884925 68.9375 65.9375 C66.28322786 68.24487717 64.40767477 69.24525034 61 70 C62.93151443 74.21109952 64.86962131 78.41913323 66.8125 82.625 C67.10256927 83.25315613 67.39263855 83.88131226 67.6914978 84.52850342 C72.19043449 94.25580837 76.85271542 103.88439537 81.74731445 113.42041016 C82.1774585 114.26394043 82.60760254 115.1074707 83.05078125 115.9765625 C83.42887939 116.70955566 83.80697754 117.44254883 84.1965332 118.19775391 C85 120 85 120 85 122 C82.02076997 122.02727678 79.04179621 122.04697128 76.0625 122.0625 C74.81629883 122.07506836 74.81629883 122.07506836 73.54492188 122.08789062 C71.02770246 122.09768525 68.51647937 122.05993948 66 122 C65.16742676 121.99250732 64.33485352 121.98501465 63.47705078 121.97729492 C61.18087084 121.86460899 59.19708384 121.67711789 57 121 C55.046875 118.60546875 55.046875 118.60546875 53.75 115.1875 C53.20558499 113.84222141 52.65701216 112.4986218 52.10546875 111.15625 C51.79270996 110.36992188 51.47995117 109.58359375 51.15771484 108.7734375 C49.75726519 105.41850116 48.22675328 102.13084875 46.67578125 98.84375 C46.38035431 98.2168074 46.08492737 97.58986481 45.7805481 96.94392395 C45.1774476 95.66544756 44.57396072 94.38715338 43.97009277 93.10903931 C42.50498837 90.00714627 41.04687225 86.90233842 39.59765625 83.79296875 C39.09758057 82.7258667 38.59750488 81.65876465 38.08227539 80.55932617 C37 78 37 78 37 76 C33.04 76 29.08 76 25 76 C25 90.85 25 105.7 25 121 C16.75 121 8.5 121 0 121 C0 81.07 0 41.14 0 0 Z " fill="#171816" transform="translate(570,554)"/>
<path d="M0 0 C1.20462891 0.433125 1.20462891 0.433125 2.43359375 0.875 C8.84638669 3.59043595 13.326561 8.47056501 16.2890625 14.71875 C21.25490503 27.72282683 21.69252324 41.8306606 17 55 C13.62446167 62.46709994 7.91800237 67.68118227 0.9375 71.8125 C-10.633371 76.03430428 -24.10057755 75 -36 75 C-36 89.52 -36 104.04 -36 119 C-44.25 119 -52.5 119 -61 119 C-61 78.74 -61 38.48 -61 -3 C-13.82635522 -5.24636404 -13.82635522 -5.24636404 0 0 Z " fill="#161715" transform="translate(536,558)"/>
<path d="M0 0 C31.35 0 62.7 0 95 0 C95 8.25 95 16.5 95 25 C83.78 25 72.56 25 61 25 C61 63.94 61 102.88 61 143 C52.09 142.67 43.18 142.34 34 142 C34 103.39 34 64.78 34 25 C22.78 25 11.56 25 0 25 C0 16.75 0 8.5 0 0 Z " fill="#161715" transform="translate(562,369)"/>
<path d="M0 0 C31.68 0 63.36 0 96 0 C96 7.92 96 15.84 96 24 C84.45 24 72.9 24 61 24 C61.495 28.95 61.495 28.95 62 34 C62.07437373 35.75377442 62.1223294 37.50932945 62.12025452 39.26467896 C62.12162918 40.17874008 62.12300385 41.09280121 62.12442017 42.03456116 C62.11902725 43.48142555 62.11902725 43.48142555 62.11352539 44.95751953 C62.11367142 46.00261185 62.11381744 47.04770416 62.1139679 48.12446594 C62.11327688 51.54393666 62.10552281 54.96335141 62.09765625 58.3828125 C62.09578919 60.76748627 62.09436664 63.15216043 62.09336853 65.53683472 C62.08956608 71.787161 62.07975535 78.03746373 62.06866455 84.28778076 C62.05840142 90.6762256 62.05386044 97.06467428 62.04882812 103.453125 C62.0381309 115.96876197 62.02055267 128.48437533 62 141 C53.09 141 44.18 141 35 141 C35 102.39 35 63.78 35 24 C27.41 24.33 19.82 24.66 12 25 C8.04 25 4.08 25 0 25 C0 16.75 0 8.5 0 0 Z " fill="#1A1B19" transform="translate(362,371)"/>
<path d="M0 0 C7.37874013 7.41146181 8.30966257 15.12175648 8.30078125 25.171875 C8.30506638 26.24947083 8.3093515 27.32706665 8.31376648 28.43731689 C8.31949798 30.71341247 8.32001876 32.98952636 8.31567383 35.265625 C8.31252343 38.72428168 8.33595557 42.18207453 8.36132812 45.640625 C8.36360238 47.85937393 8.36430403 50.07812514 8.36328125 52.296875 C8.372491 53.32012878 8.38170074 54.34338257 8.39118958 55.39764404 C8.34812422 62.17961858 8.08562879 70.10630477 3.68965149 75.65350342 C-1.66258438 80.45113358 -7.52454136 81.47983033 -14.46875 81.3125 C-20.04621649 80.62392389 -23.77707772 78.44819743 -27.375 74.1875 C-30.96196969 67.15152099 -31.30799431 60.94320859 -31.30078125 53.16796875 C-31.30506638 52.13617996 -31.3093515 51.10439117 -31.31376648 50.04133606 C-31.31949072 47.86537405 -31.32002415 45.68939292 -31.31567383 43.51342773 C-31.31252002 40.20848422 -31.33597639 36.90444205 -31.36132812 33.59960938 C-31.36360213 31.47656362 -31.36430415 29.35351548 -31.36328125 27.23046875 C-31.37709587 25.76591499 -31.37709587 25.76591499 -31.39118958 24.27177429 C-31.33133301 15.26130523 -29.96016325 7.02431389 -23.52734375 0.33984375 C-17.30579804 -5.11793164 -6.74827089 -4.27627271 0 0 Z " fill="#E8E6E1" transform="translate(722,576)"/>
<path d="M0 0 C0 3.88309022 -1.57871598 4.92998741 -4.21630859 7.58184814 C-4.82555176 8.17874451 -5.43479492 8.77564087 -6.0625 9.390625 C-6.99956787 10.32488312 -6.99956787 10.32488312 -7.95556641 11.27801514 C-9.28378601 12.59950111 -10.61560383 13.91737872 -11.95068359 15.23193359 C-13.97085471 17.22129914 -15.98049203 19.22080284 -17.98828125 21.22265625 C-19.28324094 22.5084304 -20.57879621 23.79360505 -21.875 25.078125 C-22.76457397 25.96132416 -22.76457397 25.96132416 -23.67211914 26.86236572 C-26.64375327 29.78477532 -29.6640797 32.60046314 -32.82666016 35.31567383 C-37.7618528 39.59125314 -42.31365383 44.22612555 -46.8984375 48.87109375 C-48.29784809 50.27991087 -49.69726436 51.68872241 -51.09702492 53.09719181 C-54.51733438 56.54032995 -57.9319775 59.98907257 -61.34423828 63.44018555 C-63.27331278 65.39080537 -65.20499396 67.33877422 -67.13955688 69.28395081 C-68.95563942 71.11040918 -70.76758815 72.94098873 -72.57504272 74.77598572 C-73.38994171 75.59426346 -74.2048407 76.4125412 -75.04443359 77.25561523 C-75.76198822 77.98062729 -76.47954285 78.70563934 -77.21884155 79.45262146 C-79 81 -79 81 -81 81 C-81.495 82.485 -81.495 82.485 -82 84 C-83.41259766 85.35180664 -83.41259766 85.35180664 -85.2890625 86.84765625 C-89.14038279 90.10218457 -92.47173945 93.63350259 -95.8359375 97.37109375 C-97.46083468 99.13014223 -99.09115891 100.88400199 -100.72314453 102.63647461 C-101.82254218 103.83515277 -102.90611962 105.04853909 -103.97314453 106.27612305 C-113.38538202 117.04841876 -113.38538202 117.04841876 -120.86425781 117.78173828 C-125.29748946 117.90924859 -129.60449221 117.5613069 -134 117 C-128.05142034 109.79908778 -121.61650787 103.06701031 -114.50097656 97.00756836 C-109.68135261 92.8003575 -105.1911276 88.29021106 -100.69627762 83.74087715 C-99.19409618 82.22105875 -97.68818666 80.7050229 -96.1812439 79.18992615 C-91.90374504 74.88816459 -87.63220614 70.58051852 -83.36474609 66.26879883 C-80.74024616 63.61759569 -78.11095809 60.97122107 -75.47861862 58.32780266 C-74.47914922 57.32211822 -73.48158226 56.31453944 -72.48595047 55.30505562 C-71.10274895 53.90274442 -69.71291648 52.50698301 -68.32275391 51.11157227 C-67.53413971 50.31550064 -66.74552551 49.51942902 -65.93301392 48.69923401 C-64 47 -64 47 -62 47 C-61.67 46.01 -61.34 45.02 -61 44 C-59.43565369 42.47543335 -59.43565369 42.47543335 -57.44116211 40.84521484 C-52.92712728 37.01345609 -48.95992365 32.81613956 -44.94140625 28.4765625 C-42.61565487 26.02832893 -40.28267267 23.58712071 -37.94946289 21.14599609 C-36.36035395 19.4676552 -34.78501317 17.77616846 -33.22387695 16.07177734 C-18.76744114 0.33785256 -18.76744114 0.33785256 -9.65281677 -0.55654907 C-6.37075331 -0.62042225 -3.25626218 -0.42573314 0 0 Z " fill="#4345E3" transform="translate(449,557)"/>
<path d="M0 0 C19 0 19 0 25 3 C30.32482958 8.90048683 30.42531702 13.46403813 30.28125 21.21484375 C29.81259464 27.52216378 27.96401417 31.1317914 23.4375 35.4375 C15.76561021 40.35537807 11.06894903 38 0 38 C0 25.46 0 12.92 0 0 Z " fill="#EAE8E4" transform="translate(500,575)"/>
<path d="M0 0 C3.196875 -0.061875 6.39375 -0.12375 9.6875 -0.1875 C11.18543091 -0.22846802 11.18543091 -0.22846802 12.71362305 -0.27026367 C17.6127556 -0.3161699 21.0788386 -0.29193394 25 3 C30.3576523 10.1435364 30.74333988 16.26575645 30 25 C28.44462041 30.39310965 25.76289499 33.94686218 21 37 C14.35169194 39.21610269 7.00793201 38 0 38 C0 25.46 0 12.92 0 0 Z " fill="#EBEAE6" transform="translate(595,572)"/>
<path d="M0 0 C0.66 0 1.32 0 2 0 C3.51207141 5.90402307 5.02369057 11.80816168 6.53491211 17.71240234 C7.04781221 19.71601398 7.56083043 21.71959539 8.07397461 23.72314453 C8.81656348 26.62263954 9.55871068 29.52224731 10.30078125 32.421875 C10.52590897 33.30051208 10.75103668 34.17914917 10.98298645 35.08441162 C12.67977903 41.71716919 14.33944222 48.3577689 16 55 C6.1 55 -3.8 55 -14 55 C-11.75 43.75 -11.75 43.75 -10.67138672 39.73388672 C-10.43128876 38.83370819 -10.1911908 37.93352966 -9.94381714 37.006073 C-9.69165436 36.07336578 -9.43949158 35.14065857 -9.1796875 34.1796875 C-8.91616486 33.19501495 -8.65264221 32.21034241 -8.38113403 31.1958313 C-7.54870646 28.08808727 -6.7119311 24.98153387 -5.875 21.875 C-5.30570028 19.75268175 -4.73668716 17.6302866 -4.16796875 15.5078125 C-2.78195553 10.33764864 -1.39238241 5.16845198 0 0 Z " fill="#E7E6E2" transform="translate(509,402)"/>
<path d="M0 0 C0.33 0 0.66 0 1 0 C1.33 1.98 1.66 3.96 2 6 C2.33 6 2.66 6 3 6 C3 41.64 3 77.28 3 114 C9.93 114 16.86 114 24 114 C23.98952637 110.6887207 23.97905273 107.37744141 23.96826172 103.96582031 C23.93515369 93.03742374 23.91304299 82.10902498 23.89637566 71.18059158 C23.885929 64.55331016 23.87175362 57.92608003 23.84912109 51.29882812 C23.8274243 44.90572351 23.81543802 38.51266831 23.81024551 32.11952972 C23.80654408 29.67783582 23.79931631 27.23614467 23.78853989 24.79447174 C23.77406717 21.38017386 23.77202031 17.96608133 23.77294922 14.55175781 C23.76575867 13.53755768 23.75856812 12.52335754 23.75115967 11.47842407 C23.753909 10.54736847 23.75665833 9.61631287 23.75949097 8.65704346 C23.75764738 7.8495528 23.75580379 7.04206215 23.75390434 6.21010208 C24.02705619 3.75701751 24.77501294 2.12537118 26 0 C27.14825209 12.99955468 27.12922809 25.95504498 27.09765625 38.99609375 C27.09578726 41.28394032 27.09436563 43.57178729 27.09336853 45.8596344 C27.08958118 51.832053 27.07978393 57.80444662 27.06866455 63.77685547 C27.05836838 69.89094709 27.05385346 76.00504281 27.04882812 82.11914062 C27.03815765 94.07943973 27.02059223 106.03971386 27 118 C18.09 117.67 9.18 117.34 0 117 C0 78.39 0 39.78 0 0 Z " fill="#242422" transform="translate(596,394)"/>
<path d="M0 0 C0.89983109 0.00719055 1.79966217 0.0143811 2.72676086 0.02178955 C3.67314926 0.0214975 4.61953766 0.02120544 5.59460449 0.02090454 C8.73298712 0.02230153 11.87113439 0.0378801 15.00947571 0.05352783 C17.18137991 0.05725665 19.35328578 0.06010424 21.52519226 0.06210327 C27.24959433 0.06975006 32.97389537 0.08940752 38.69825745 0.11151123 C44.53635796 0.13194716 50.37447476 0.14110016 56.21260071 0.15118408 C67.67358267 0.17265243 79.13448955 0.20680096 90.59541321 0.24884033 C90.59541321 0.57884033 90.59541321 0.90884033 90.59541321 1.24884033 C58.25611835 2.1468887 25.94632397 2.36497842 -6.40458679 2.24884033 C-6.40458679 10.49884033 -6.40458679 18.74884033 -6.40458679 27.24884033 C-2.44458679 26.91884033 1.51541321 26.58884033 5.59541321 26.24884033 C13.18541321 26.24884033 20.77541321 26.24884033 28.59541321 26.24884033 C28.59541321 64.52884033 28.59541321 102.80884033 28.59541321 142.24884033 C27.93541321 142.57884033 27.27541321 142.90884033 26.59541321 143.24884033 C26.59541321 105.29884033 26.59541321 67.34884033 26.59541321 28.24884033 C15.37541321 28.24884033 4.15541321 28.24884033 -7.40458679 28.24884033 C-9.99413836 25.65928876 -8.59017471 18.29706431 -8.59208679 14.81134033 C-8.60433289 13.64022705 -8.61657898 12.46911377 -8.62919617 11.26251221 C-8.63112976 10.14553955 -8.63306335 9.02856689 -8.63505554 7.87774658 C-8.63916443 6.84722168 -8.64327332 5.81669678 -8.64750671 4.75494385 C-8.12248326 -0.66150417 -4.59263945 0.01541865 0 0 Z " fill="#FBFBFA" transform="translate(368.4045867919922,368.75115966796875)"/>
<path d="M0 0 C46 0 46 0 55 2 C55 2.33 55 2.66 55 3 C37.51 2.67 20.02 2.34 2 2 C2 40.61 2 79.22 2 119 C8.93 119 15.86 119 23 119 C23 104.81 23 90.62 23 76 C25.06037303 79.09055955 25.24799242 79.70926162 25.22705078 83.19604492 C25.22689972 84.03668991 25.22674866 84.8773349 25.22659302 85.74345398 C25.21627045 86.64666885 25.20594788 87.54988373 25.1953125 88.48046875 C25.1924826 89.40845779 25.18965271 90.33644684 25.18673706 91.29255676 C25.17553836 94.25766879 25.15043435 97.22247921 25.125 100.1875 C25.1149698 102.19726126 25.10584402 104.20702726 25.09765625 106.21679688 C25.07730126 111.14474105 25.038152 116.07203275 25 121 C16.75 121 8.5 121 0 121 C0 81.07 0 41.14 0 0 Z " fill="#050504" transform="translate(570,554)"/>
<path d="M0 0 C0 3 0 3 -1.5 4.6875 C-1.995 5.120625 -2.49 5.55375 -3 6 C-2.505 7.485 -2.505 7.485 -2 9 C-1.34 8.67 -0.68 8.34 0 8 C-0.33 9.32 -0.66 10.64 -1 12 C-0.34 12.33 0.32 12.66 1 13 C-0.134375 13.28875 -1.26875 13.5775 -2.4375 13.875 C-3.613125 14.24625 -4.78875 14.6175 -6 15 C-6.33 15.66 -6.66 16.32 -7 17 C-6.01 17 -5.02 17 -4 17 C-4 17.66 -4 18.32 -4 19 C-5.31054688 20.28930664 -5.31054688 20.28930664 -7.21875 21.84765625 C-13.31720242 27.03322305 -18.8661587 32.75927797 -24.5 38.4375 C-25.61955632 39.5620833 -26.73934629 40.68643405 -27.859375 41.81054688 C-30.57561534 44.53769344 -33.28868292 47.26795907 -36 50 C-36.66 49.67 -37.32 49.34 -38 49 C-37.154375 48.278125 -36.30875 47.55625 -35.4375 46.8125 C-34.633125 45.884375 -33.82875 44.95625 -33 44 C-33.26259783 41.51948778 -33.26259783 41.51948778 -34 39 C-33.3125 35.8125 -33.3125 35.8125 -32 33 C-29.9375 31.875 -29.9375 31.875 -28 31 C-27.7834375 30.1028125 -27.7834375 30.1028125 -27.5625 29.1875 C-26.71151594 25.87811753 -24.4387614 24.35017983 -22 22 C-21.14623779 21.14623779 -20.29247559 20.29247559 -19.4128418 19.4128418 C-12.94189453 12.94189453 -6.47094727 6.47094727 0 0 Z M-37 41 C-34 42 -34 42 -34 42 Z " fill="#5A5DE7" transform="translate(417,575)"/>
<path d="M0 0 C31.68 0 63.36 0 96 0 C96 7.92 96 15.84 96 24 C84.45 24 72.9 24 61 24 C61 61.62 61 99.24 61 138 C60.67 138 60.34 138 60 138 C59.84623377 123.15357419 59.69819694 108.30710058 59.5570364 93.46054935 C59.49136298 86.56750061 59.42379374 79.67448007 59.35180664 72.78149414 C59.28240509 66.13557842 59.21822686 59.48962579 59.15730476 52.84362602 C59.1331366 50.30175491 59.10718624 47.75990012 59.07946587 45.21806526 C59.04108612 41.6715259 59.00891233 38.12498257 58.97827148 34.57836914 C58.96532547 33.51598022 58.95237946 32.45359131 58.93904114 31.35900879 C58.93200165 30.39842056 58.92496216 29.43783234 58.91770935 28.44813538 C58.90941321 27.60838197 58.90111708 26.76862856 58.89256954 25.90342808 C59 24 59 24 60 23 C62.52094076 22.91152257 65.01430893 22.88472699 67.53515625 22.90234375 C68.66503212 22.90446617 68.66503212 22.90446617 69.81773376 22.90663147 C72.2326956 22.91224624 74.64756601 22.92480117 77.0625 22.9375 C78.69596221 22.9425131 80.32942586 22.94707634 81.96289062 22.95117188 C85.9753243 22.96137125 89.98755936 22.98094355 94 23 C94 15.74 94 8.48 94 1 C92.30230469 1.0721875 90.60460937 1.144375 88.85546875 1.21875 C69.04982046 1.97270051 49.25520181 2.0877254 29.4375 2.0625 C28.42160608 2.06121597 28.42160608 2.06121597 27.38518906 2.05990601 C18.92343307 2.04842463 10.46171903 2.02744707 2 2 C2 8.93 2 15.86 2 23 C1.34 23 0.68 23 0 23 C0 15.41 0 7.82 0 0 Z " fill="#010101" transform="translate(362,371)"/>
<path d="M0 0 C0.33 0 0.66 0 1 0 C1 34.98 1 69.96 1 106 C7.93 106 14.86 106 22 106 C22 92.14 22 78.28 22 64 C23.32 63.34 24.64 62.68 26 62 C25.67 62.66 25.34 63.32 25 64 C24.88252522 65.41882881 24.82314572 66.84271414 24.79467773 68.26611328 C24.77473251 69.14687531 24.75478729 70.02763733 24.73423767 70.93508911 C24.70916893 72.36327469 24.70916893 72.36327469 24.68359375 73.8203125 C24.66281265 74.79410858 24.64203156 75.76790466 24.62062073 76.77120972 C24.55511402 79.88906647 24.49623503 83.00700903 24.4375 86.125 C24.39431585 88.23568604 24.3507016 90.34636333 24.30664062 92.45703125 C24.19862023 97.63793407 24.09955507 102.81889984 24 108 C15.75 108 7.5 108 -1 108 C-1.022557 94.21385834 -1.04091857 80.42772886 -1.05181217 66.64157295 C-1.0570395 60.24069663 -1.06413446 53.83983355 -1.07543945 47.43896484 C-1.08627362 41.2663243 -1.09227797 35.09369652 -1.09487724 28.92104721 C-1.09673053 26.56143874 -1.10034931 24.201831 -1.10573006 21.84222794 C-1.11294748 18.54730956 -1.11399064 15.25244449 -1.11352539 11.95751953 C-1.11712067 10.9735318 -1.12071594 9.98954407 -1.12442017 8.97573853 C-1.1230455 8.08108887 -1.12167084 7.18643921 -1.12025452 6.26467896 C-1.12117631 5.48484209 -1.1220981 4.70500523 -1.12304783 3.90153694 C-1 2 -1 2 0 0 Z " fill="#010101" transform="translate(476,569)"/>
<path d="M0 0 C0.66 0.33 1.32 0.66 2 1 C-3.54879782 6.59511613 -9.10296055 12.1848272 -14.6640749 17.76769924 C-17.2460885 20.36015486 -19.82620677 22.95444001 -22.40209961 25.55297852 C-24.8875396 28.06013189 -27.37781801 30.56238349 -29.87154198 33.06129646 C-31.28578858 34.48104278 -32.69496466 35.90583411 -34.1040802 37.33067322 C-34.96474594 38.19149002 -35.82541168 39.05230682 -36.7121582 39.93920898 C-37.46938675 40.70087875 -38.2266153 41.46254852 -39.00679016 42.24729919 C-41 44 -41 44 -44 45 C-44 44.34 -44 43.68 -44 43 C-43.34 43 -42.68 43 -42 43 C-42.77030122 39.51190809 -42.77030122 39.51190809 -44 36 C-44.99 35.67 -45.98 35.34 -47 35 C-40.73 28.73 -34.46 22.46 -28 16 C-27.34 16.66 -26.68 17.32 -26 18 C-26.375 19.875 -26.375 19.875 -27 22 C-27 23.32 -27 24.64 -27 26 C-27.99 27.32 -28.98 28.64 -30 30 C-20.1 20.1 -10.2 10.2 0 0 Z " fill="#3E40E2" transform="translate(411,594)"/>
<path d="M0 0 C31.02 0 62.04 0 94 0 C93.67 1.32 93.34 2.64 93 4 C92.85870882 5.51270605 92.75537183 7.02928128 92.68359375 8.546875 C92.64548584 9.30838867 92.60737793 10.06990234 92.56811523 10.85449219 C92.52501221 11.81000977 92.48190918 12.76552734 92.4375 13.75 C92.293125 16.8025 92.14875 19.855 92 23 C81.11 23 70.22 23 59 23 C59 22.67 59 22.34 59 22 C69.56 22 80.12 22 91 22 C91 15.73 91 9.46 91 3 C89.67162109 3.03552979 88.34324219 3.07105957 86.97460938 3.10766602 C38.39590895 4.38238386 38.39590895 4.38238386 19 3 C19 2.67 19 2.34 19 2 C12.73 1.67 6.46 1.34 0 1 C0 0.67 0 0.34 0 0 Z " fill="#282826" transform="translate(563,369)"/>
<path d="M0 0 C-3.97720276 4.88627768 -8.24851894 9.47199481 -12.625 14 C-13.18727295 14.60030029 -13.7495459 15.20060059 -14.32885742 15.8190918 C-15.9765625 17.5 -15.9765625 17.5 -19 20 C-21.18896484 19.65625 -21.18896484 19.65625 -23 19 C-23.33 17.35 -23.66 15.7 -24 14 C-25.32 14.33 -26.64 14.66 -28 15 C-26.62290414 13.34748496 -25.23669041 11.70194817 -23.8125 10.08984375 C-22.59551439 8.68663836 -21.42819616 7.23891851 -20.3125 5.75390625 C-14.49312663 -1.28201716 -8.70474477 -0.88025509 0 0 Z " fill="#5C5DE7" transform="translate(447,559)"/>
<path d="M0 0 C1.4540625 0.0309375 1.4540625 0.0309375 2.9375 0.0625 C2.9375 0.7225 2.9375 1.3825 2.9375 2.0625 C1.2875 2.0625 -0.3625 2.0625 -2.0625 2.0625 C-2.06027939 3.30562958 -2.05805878 4.54875916 -2.05577087 5.82955933 C-2.03546066 17.56992705 -2.02048995 29.31029119 -2.01068783 41.05067253 C-2.005479 47.0858725 -1.99841778 53.12105823 -1.98706055 59.15625 C-1.97616046 64.98528304 -1.9702081 70.81430243 -1.96762276 76.64334488 C-1.96578132 78.86236918 -1.96218552 81.08139277 -1.95676994 83.30041122 C-1.94946494 86.41887756 -1.94851303 89.53728814 -1.94897461 92.65576172 C-1.94537933 93.56423355 -1.94178406 94.47270538 -1.93807983 95.40870667 C-1.94753391 101.34783996 -2.3671905 107.16471211 -3.0625 113.0625 C-3.3925 113.0625 -3.7225 113.0625 -4.0625 113.0625 C-4.08583003 98.47678805 -4.10341327 83.89107897 -4.11431217 69.30535221 C-4.11947491 62.53339579 -4.12651718 55.76145095 -4.13793945 48.98950195 C-4.14894714 42.46025574 -4.15477625 35.93101706 -4.15737724 29.40176201 C-4.15923199 26.90456388 -4.16285354 24.40736645 -4.16823006 21.91017342 C-4.17543684 18.42585931 -4.1764911 14.94159569 -4.17602539 11.45727539 C-4.17962067 10.41358795 -4.18321594 9.36990051 -4.18692017 8.29458618 C-4.1855455 7.35082626 -4.18417084 6.40706635 -4.18275452 5.43470764 C-4.18367631 4.60970292 -4.1845981 3.7846982 -4.18554783 2.93469334 C-3.97420696 -0.28089335 -3.27943598 0.06692726 0 0 Z " fill="#F4F4F1" transform="translate(477.0625,552.9375)"/>
<path d="M0 0 C9.24 0 18.48 0 28 0 C28.66 2.97 29.32 5.94 30 9 C30.33 9.99 30.66 10.98 31 12 C30.01 11.67 29.02 11.34 28 11 C27.34 8.03 26.68 5.06 26 2 C18.08 1.67 10.16 1.34 2 1 C5.17289659 17.87026771 5.17289659 17.87026771 14.6875 31.8125 C30.69024713 42.38035188 48.50333473 42.15345791 67 40 C67 40.66 67 41.32 67 42 C50.48218129 45.33332558 32.18678531 45.7428162 17.33203125 36.65625 C6.69112796 29.09889155 3.00016432 19.65827742 0.48046875 7.1015625 C0 4 0 4 0 0 Z " fill="#0A0A09" transform="translate(667,469)"/>
<path d="M0 0 C0.33 0 0.66 0 1 0 C1 37.95 1 75.9 1 115 C8.26 115 15.52 115 23 115 C19.74610012 117.16926659 18.86604043 117.24080049 15.11328125 117.1953125 C14.17548828 117.18886719 13.23769531 117.18242188 12.27148438 117.17578125 C10.80678711 117.15064453 10.80678711 117.15064453 9.3125 117.125 C7.83040039 117.11146484 7.83040039 117.11146484 6.31835938 117.09765625 C3.87866235 117.0740843 1.43945303 117.04118022 -1 117 C-1.13661257 88.49421168 -0.93487625 60.0020243 -0.5 31.5 C-0.48804218 30.71599949 -0.47608437 29.93199898 -0.46376419 29.12424088 C-0.315144 19.41606246 -0.16048396 9.70798978 0 0 Z " fill="#030302" transform="translate(398,395)"/>
<path d="M0 0 C1.98 0 3.96 0 6 0 C6 0.66 6 1.32 6 2 C6.66 2.33 7.32 2.66 8 3 C-0.65444946 13.92151938 -0.65444946 13.92151938 -7.0703125 14.953125 C-10.72082447 15.26728192 -14.34219232 15.21226144 -18 15 C-16.53623686 13.26300108 -15.06364649 11.53541111 -13.57421875 9.8203125 C-12.38129002 8.44089616 -11.21530721 7.03811851 -10.0625 5.625 C-7.19207622 3.36345399 -4.57869764 3.27528443 -1 3 C-0.67 2.01 -0.34 1.02 0 0 Z " fill="#5759E7" transform="translate(336,658)"/>
<path d="M0 0 C18.81 0 37.62 0 57 0 C57 0.33 57 0.66 57 1 C38.52 1 20.04 1 1 1 C1 6.94 1 12.88 1 19 C11.23 19 21.46 19 32 19 C32 19.33 32 19.66 32 20 C21.605 20.495 21.605 20.495 11 21 C10.67 21.66 10.34 22.32 10 23 C6.04 23 2.08 23 -2 23 C-2 22.34 -2 21.68 -2 21 C-1.34 21 -0.68 21 0 21 C0 14.07 0 7.14 0 0 Z " fill="#2A2B28" transform="translate(364,373)"/>
<path d="M0 0 C-0.639375 0.309375 -1.27875 0.61875 -1.9375 0.9375 C-3.93610821 1.8345163 -3.93610821 1.8345163 -5 3 C-7.23074644 3.07239745 -9.44492191 2.99649793 -11.67578125 2.9375 C-13.96190965 2.91421564 -13.96190965 2.91421564 -15.96484375 3.49609375 C-18.44701443 4.11068112 -20.69643871 4.09609949 -23.25 4.0625 C-24.8175 4.041875 -26.385 4.02125 -28 4 C-28 9.28 -28 14.56 -28 20 C-28.33 20 -28.66 20 -29 20 C-29.33 25.28 -29.66 30.56 -30 36 C-30.33 36 -30.66 36 -31 36 C-31 24.45 -31 12.9 -31 1 C-24.44125 0.4740625 -24.44125 0.4740625 -17.75 -0.0625 C-16.37682617 -0.17601807 -15.00365234 -0.28953613 -13.58886719 -0.40649414 C-12.50250977 -0.49020264 -11.41615234 -0.57391113 -10.296875 -0.66015625 C-9.18666992 -0.74918213 -8.07646484 -0.83820801 -6.93261719 -0.92993164 C-4.34031025 -0.99186904 -2.44585704 -0.79360255 0 0 Z " fill="#E3E2DD" transform="translate(531,632)"/>
<path d="M0 0 C3.43676897 5.15515346 3.14880487 10.30293154 3.1328125 16.34375 C3.13376923 17.14929321 3.13472595 17.95483643 3.13571167 18.78479004 C3.13639079 20.48933999 3.13455521 22.19389255 3.13037109 23.8984375 C3.12507514 26.46360348 3.13029597 29.02858984 3.13671875 31.59375 C3.15135892 61.37420006 3.15135892 61.37420006 -3.1875 68.4375 C-3.785625 68.953125 -4.38375 69.46875 -5 70 C-5 67 -5 67 -3.625 65.3125 C1.07388864 58.62562002 0.26460278 49.9858674 0.1953125 42.1875 C0.1924826 40.97803711 0.18965271 39.76857422 0.18673706 38.52246094 C0.17559396 34.68153752 0.15049983 30.84085225 0.125 27 C0.11496263 24.38672213 0.1058381 21.77344059 0.09765625 19.16015625 C0.07567383 12.77335704 0.04225475 6.38669554 0 0 Z " fill="#060605" transform="translate(729,585)"/>
<path d="M0 0 C2 2 2 2 2.22705078 4.15478516 C2.21657715 5.02409668 2.20610352 5.8934082 2.1953125 6.7890625 C2.19031738 7.63678223 2.18532227 8.48450195 2.18017578 9.35791016 C2.16196777 10.4360498 2.14375977 11.51418945 2.125 12.625 C2.08375 16.04875 2.0425 19.4725 2 23 C-9.22 23 -20.44 23 -32 23 C-32 27.95 -32 32.9 -32 38 C-32.33 38 -32.66 38 -33 38 C-33.33 32.72 -33.66 27.44 -34 22 C-31.04189524 20.52094762 -28.0452845 20.87809097 -24.8046875 20.90234375 C-24.09724396 20.9037587 -23.38980042 20.90517365 -22.66091919 20.90663147 C-20.39890331 20.912234 -18.13698602 20.92478682 -15.875 20.9375 C-14.34244935 20.94251468 -12.80989714 20.94707764 -11.27734375 20.95117188 C-7.51816053 20.96135384 -3.75919076 20.98092857 0 21 C0 14.07 0 7.14 0 0 Z " fill="#131311" transform="translate(655,371)"/>
<path d="M0 0 C2.90923206 2.90923206 3.32018012 6.45236102 4.27734375 10.33984375 C4.48935928 11.1765712 4.70137482 12.01329865 4.91981506 12.87538147 C5.59895245 15.56114696 6.26849107 18.24919552 6.9375 20.9375 C7.60350335 23.58727122 8.27146323 26.23654129 8.94009399 28.88565063 C9.37085387 30.59555955 9.79956835 32.30598513 10.22616577 34.01693726 C11.56145172 39.35497741 12.99955151 44.64839527 14.61938477 49.90844727 C15.04704118 52.25850018 14.74562502 53.75162923 14 56 C10.66126938 45.59853609 7.5738441 35.15670733 4.77758789 24.59619141 C4.17800784 22.33926988 3.56665696 20.08572717 2.95507812 17.83203125 C2.56699411 16.37519007 2.17959781 14.91816548 1.79296875 13.4609375 C1.61179001 12.79838959 1.43061127 12.13584167 1.24394226 11.45321655 C0.22442122 7.54655986 -0.17835322 4.0325701 0 0 Z " fill="#080807" transform="translate(511,401)"/>
<path d="M0 0 C5.61 0 11.22 0 17 0 C17 0.33 17 0.66 17 1 C12.05 1 7.1 1 2 1 C2 7.27 2 13.54 2 20 C12.56 20 23.12 20 34 20 C34 20.33 34 20.66 34 21 C22.78 21.33 11.56 21.66 0 22 C0 14.74 0 7.48 0 0 Z " fill="#222220" transform="translate(563,371)"/>
<path d="M0 0 C0.66 0 1.32 0 2 0 C2.99 1.98 3.98 3.96 5 6 C5.66 6 6.32 6 7 6 C7.83819158 7.62249941 8.6704116 9.24808497 9.5 10.875 C9.9640625 11.77992188 10.428125 12.68484375 10.90625 13.6171875 C12 16 12 16 12 18 C8.95827281 18.0271045 5.91679003 18.04688964 2.875 18.0625 C2.0190625 18.07087891 1.163125 18.07925781 0.28125 18.08789062 C-4.26678411 18.10538306 -8.52383164 17.93192358 -13 17 C-12.67 16.34 -12.34 15.68 -12 15 C-6.39 15 -0.78 15 5 15 C4.21665708 8.77604955 4.21665708 8.77604955 1.9375 3.5625 C1.57527344 2.88316406 1.21304688 2.20382812 0.83984375 1.50390625 C0.56269531 1.00761719 0.28554688 0.51132812 0 0 Z " fill="#242422" transform="translate(643,658)"/>
<path d="M0 0 C0 3 0 3 -2.26171875 5.3359375 C-3.39851942 6.35470779 -4.54105961 7.36708974 -5.6875 8.375 C-14.22210093 16.0896591 -22.32108572 24.22662794 -30.4375 32.375 C-31.10453949 33.04408386 -31.77157898 33.71316772 -32.45883179 34.40252686 C-36.30922461 38.26504141 -40.15614413 42.13098041 -44 46 C-44.66 45.67 -45.32 45.34 -46 45 C-40.48939605 39.43884636 -34.97109214 33.88542222 -29.44726562 28.33740234 C-27.56695066 26.44813156 -25.68962782 24.55601811 -23.81347656 22.66259766 C-21.12249981 19.94746747 -18.42521238 17.23875101 -15.7265625 14.53125 C-14.88380768 13.67817261 -14.04105286 12.82509521 -13.17276001 11.94616699 C-12.39210175 11.16535767 -11.61144348 10.38454834 -10.80712891 9.58007812 C-10.11873932 8.88724731 -9.43034973 8.1944165 -8.72109985 7.48059082 C-7 6 -7 6 -5 6 C-4.67 5.01 -4.34 4.02 -4 3 C-1.9375 1.3125 -1.9375 1.3125 0 0 Z " fill="#1516DF" transform="translate(392,598)"/>
<path d="M0 0 C3.5045275 0.97347986 4.88857413 1.85992177 7.1875 4.75 C9.73742598 9.32228107 11 12.74639959 11 18 C18.59 18 26.18 18 34 18 C34.33 17.34 34.66 16.68 35 16 C35.495 17.98 35.495 17.98 36 20 C27.09 20 18.18 20 9 20 C8.34 16.7 7.68 13.4 7 10 C4.91421262 6.23212603 3.57695182 4.38463454 0 2 C0 1.34 0 0.68 0 0 Z " fill="#030302" transform="translate(315,391)"/>
<path d="M0 0 C4.05601547 2.73340173 6.24760635 4.52554938 7.375 9.375 C8.03079543 13.29009872 8.1685405 17.03929833 8 21 C5.12693191 21 2.31705356 20.93605695 -0.546875 20.78125 C-1.39121094 20.73613281 -2.23554687 20.69101562 -3.10546875 20.64453125 C-4.41451172 20.57298828 -4.41451172 20.57298828 -5.75 20.5 C-6.63816406 20.45230469 -7.52632812 20.40460938 -8.44140625 20.35546875 C-10.62765718 20.23792838 -12.81385031 20.1194062 -15 20 C-15 19.67 -15 19.34 -15 19 C-8.73 19 -2.46 19 4 19 C2.98134111 12.52423993 1.98802428 6.24807631 0 0 Z " fill="#222220" transform="translate(752,388)"/>
<path d="M0 0 C0.66 0.33 1.32 0.66 2 1 C2.44232048 7.96654748 1.65206873 12.97158518 -2 19 C-6.09189552 23.09189552 -10.66764353 23.17063 -16.25 23.25 C-21.90093985 23.22451662 -25.91086585 22.39488666 -31 20 C-31 19.34 -31 18.68 -31 18 C-30.17628906 18.32355469 -29.35257813 18.64710938 -28.50390625 18.98046875 C-24.58511738 20.12071836 -20.98001 20.3313726 -16.9375 20.3125 C-15.89625977 20.33666992 -15.89625977 20.33666992 -14.83398438 20.36132812 C-10.3718154 20.3655657 -7.51698827 19.78238628 -4 17 C-0.87157976 11.52526459 -0.36354177 6.2303538 0 0 Z " fill="#FAFAF9" transform="translate(733,466)"/>
<path d="M0 0 C0 3 0 3 -2 6 C-1.175 6.4125 -0.35 6.825 0.5 7.25 C1.325 7.8275 2.15 8.405 3 9 C3 10.32 3 11.64 3 13 C2.01 13 1.02 13 0 13 C0 12.34 0 11.68 0 11 C-1.98 11 -3.96 11 -6 11 C-6.33 12.32 -6.66 13.64 -7 15 C-8.98 15 -10.96 15 -13 15 C-13 12 -13 12 -10.41015625 9.3359375 C-9.30171641 8.34060376 -8.18545849 7.35392409 -7.0625 6.375 C-6.49853516 5.87226562 -5.93457031 5.36953125 -5.35351562 4.8515625 C-3.9068874 3.56259077 -2.45389845 2.28076564 -1 1 C-0.67 0.67 -0.34 0.34 0 0 Z " fill="#4A4BE6" transform="translate(342,647)"/>
<path d="M0 0 C0.33 0 0.66 0 1 0 C1.02464574 5.96313166 1.042834 11.92623395 1.05493164 17.8894043 C1.05997278 19.91968298 1.06680557 21.94995802 1.07543945 23.98022461 C1.08751467 26.89177347 1.09323034 29.8032745 1.09765625 32.71484375 C1.10281754 33.6283812 1.10797882 34.54191864 1.11329651 35.48313904 C1.11349168 37.65575427 1.06211805 39.82827296 1 42 C0 43 0 43 -2.59204102 43.11352539 C-3.71795654 43.10828857 -4.84387207 43.10305176 -6.00390625 43.09765625 C-7.21884766 43.09443359 -8.43378906 43.09121094 -9.68554688 43.08789062 C-10.96494141 43.07951172 -12.24433594 43.07113281 -13.5625 43.0625 C-14.84576172 43.05798828 -16.12902344 43.05347656 -17.45117188 43.04882812 C-20.63416022 43.03699545 -23.81705762 43.02051068 -27 43 C-27 42.67 -27 42.34 -27 42 C-18.42 41.67 -9.84 41.34 -1 41 C-0.67 27.47 -0.34 13.94 0 0 Z " fill="#FDFDFC" transform="translate(501,636)"/>
<path d="M0 0 C0.99 0.33 1.98 0.66 3 1 C5.17521244 6.3158935 5.39005324 12.34422808 5 18 C4.34 18.99 3.68 19.98 3 21 C0.38623047 21.34057617 0.38623047 21.34057617 -2.8828125 21.29296875 C-4.04941406 21.28330078 -5.21601563 21.27363281 -6.41796875 21.26367188 C-7.64128906 21.23853516 -8.86460937 21.21339844 -10.125 21.1875 C-11.35605469 21.17396484 -12.58710938 21.16042969 -13.85546875 21.14648438 C-16.90407843 21.11103543 -19.951825 21.06162079 -23 21 C-19.64880481 18.76586987 -18.5822245 18.76152238 -14.67578125 18.8046875 C-13.13374023 18.81435547 -13.13374023 18.81435547 -11.56054688 18.82421875 C-10.48869141 18.84097656 -9.41683594 18.85773438 -8.3125 18.875 C-7.22904297 18.88402344 -6.14558594 18.89304687 -5.02929688 18.90234375 C-2.3526429 18.9259266 0.32356797 18.95883874 3 19 C2.69035138 16.58293696 2.37738885 14.16638113 2.0625 11.75 C1.97548828 11.06808594 1.88847656 10.38617188 1.79882812 9.68359375 C1.3684062 6.39963389 0.91205869 3.18809706 0 0 Z " fill="#FBFBFA" transform="translate(348,392)"/>
<path d="M0 0 C1.98 0 3.96 0 6 0 C5.01 0.495 5.01 0.495 4 1 C4 1.66 4 2.32 4 3 C3.40461426 3.02505615 2.80922852 3.0501123 2.19580078 3.07592773 C-0.49469136 3.19177494 -3.1848234 3.31455196 -5.875 3.4375 C-6.81214844 3.47681641 -7.74929688 3.51613281 -8.71484375 3.55664062 C-10.05869141 3.61948242 -10.05869141 3.61948242 -11.4296875 3.68359375 C-12.25710449 3.72025146 -13.08452148 3.75690918 -13.93701172 3.79467773 C-16.06179429 3.88238327 -16.06179429 3.88238327 -18 5 C-17.855625 5.74765625 -17.71125 6.4953125 -17.5625 7.265625 C-17.376875 8.25046875 -17.19125 9.2353125 -17 10.25 C-16.814375 11.22453125 -16.62875 12.1990625 -16.4375 13.203125 C-16 16 -16 16 -16 20 C-16.99 20 -17.98 20 -19 20 C-19.34660624 18.69094252 -19.67632837 17.37741598 -20 16.0625 C-20.185625 15.33160156 -20.37125 14.60070312 -20.5625 13.84765625 C-21.16261109 9.94157602 -21 5.95191044 -21 2 C-10.605 1.505 -10.605 1.505 0 1 C0 0.67 0 0.34 0 0 Z " fill="#26241F" transform="translate(280,466)"/>
<path d="M0 0 C0.66 0 1.32 0 2 0 C2.08636719 0.80824219 2.17273438 1.61648438 2.26171875 2.44921875 C2.92083619 9.41031951 2.92083619 9.41031951 6.5 15.125 C7.7375 16.053125 7.7375 16.053125 9 17 C9.66 17.66 10.32 18.32 11 19 C10.505 20.485 10.505 20.485 10 22 C6.44728413 20.81576138 5.33725769 19.92157211 3 17 C0.86206465 12.15340926 0 8.34684122 0 3 C-7.92 3 -15.84 3 -24 3 C-24 2.67 -24 2.34 -24 2 C-16.08 2 -8.16 2 0 2 C0 1.34 0 0.68 0 0 Z " fill="#0B0A09" transform="translate(284,467)"/>
<path d="M0 0 C12.35611706 -0.60767789 23.25190707 0.16787796 33.2421875 8.33984375 C36.08227946 11.02215282 38.59719418 13.92368043 41 17 C40.01 17.495 40.01 17.495 39 18 C38.071875 16.7934375 38.071875 16.7934375 37.125 15.5625 C35.25835959 12.96125481 35.25835959 12.96125481 33 12 C33 11.34 33 10.68 33 10 C32.278125 9.731875 31.55625 9.46375 30.8125 9.1875 C28 8 28 8 25.7109375 6.52734375 C18.18191616 2.28548879 8.51260492 1.55725856 0 1 C0 0.67 0 0.34 0 0 Z " fill="#080807" transform="translate(711,367)"/>
<path d="M0 0 C1.31097656 0.45439453 1.31097656 0.45439453 2.6484375 0.91796875 C12.66933175 4.33179541 22.77882329 7.24859504 33 10 C33 10.66 33 11.32 33 12 C25.90973609 10.67538182 18.95140806 9.04772989 12 7.125 C11.06027344 6.88136719 10.12054687 6.63773437 9.15234375 6.38671875 C7.80849609 6.01353516 7.80849609 6.01353516 6.4375 5.6328125 C5.63183594 5.41512207 4.82617188 5.19743164 3.99609375 4.97314453 C1.49282829 3.75274138 0.97243771 2.55396309 0 0 Z " fill="#0A0A09" transform="translate(704,421)"/>
<path d="M0 0 C0.33 0 0.66 0 1 0 C1 10.89 1 21.78 1 33 C1.66 33.33 2.32 33.66 3 34 C1.02 34.495 1.02 34.495 -1 35 C-1.02931979 30.85418181 -1.04690557 26.70839075 -1.0625 22.5625 C-1.07506836 20.81549805 -1.07506836 20.81549805 -1.08789062 19.03320312 C-1.10602151 12.59673798 -0.86649876 6.37934125 0 0 Z " fill="#FAFAF8" transform="translate(501,578)"/>
<path d="M0 0 C21.5090036 -0.7454982 21.5090036 -0.7454982 31 4 C30.67 4.99 30.34 5.98 30 7 C28.07942708 6.25130208 26.15885417 5.50260417 24.23828125 4.75390625 C18.79881125 2.92176365 13.37527197 2.71133906 7.6875 2.4375 C6.85154297 2.39431641 6.01558594 2.35113281 5.15429688 2.30664062 C3.10303065 2.20114693 1.0515352 2.10012685 -1 2 C-0.67 1.34 -0.34 0.68 0 0 Z " fill="#030302" transform="translate(703,553)"/>
<path d="M0 0 C1 3 1 3 0 7 C-8.91 7 -17.82 7 -27 7 C-26.34 5.68 -25.68 4.36 -25 3 C-24.67 3.66 -24.34 4.32 -24 5 C-16.74 4.67 -9.48 4.34 -2 4 C-1.34 2.68 -0.68 1.36 0 0 Z " fill="#030303" transform="translate(481,504)"/>
<path d="M0 0 C1.32 0.33 2.64 0.66 4 1 C3.46512254 5.03002504 1.47105522 6.90131325 -1.375 9.6875 C-2.16648437 10.47511719 -2.95796875 11.26273438 -3.7734375 12.07421875 C-6 14 -6 14 -9 15 C-9 14.34 -9 13.68 -9 13 C-8.34 13 -7.68 13 -7 13 C-7.185625 12.38125 -7.37125 11.7625 -7.5625 11.125 C-8 9 -8 9 -7 7 C-6.01 6.67 -5.02 6.34 -4 6 C-4.33 5.34 -4.66 4.68 -5 4 C-3.68 4.33 -2.36 4.66 -1 5 C-0.67 3.35 -0.34 1.7 0 0 Z " fill="#4B4DE1" transform="translate(376,624)"/>
<path d="M0 0 C0.33 0 0.66 0 1 0 C2.23839599 6.65637843 2.09139136 13.2471936 2 20 C1.34 20.33 0.68 20.66 0 21 C-0.66 21.99 -1.32 22.98 -2 24 C-2 17.07 -2 10.14 -2 3 C-1.34 3 -0.68 3 0 3 C0 2.01 0 1.02 0 0 Z " fill="#272724" transform="translate(554,581)"/>
<path d="M0 0 C2 2 2 2 2.22705078 4.15478516 C2.21657715 5.02409668 2.20610352 5.8934082 2.1953125 6.7890625 C2.18886719 7.73007812 2.18242188 8.67109375 2.17578125 9.640625 C2.15902344 10.62546875 2.14226563 11.6103125 2.125 12.625 C2.11597656 13.61757813 2.10695313 14.61015625 2.09765625 15.6328125 C2.07404249 18.08864388 2.0381707 20.54435174 2 23 C-3.61 22.67 -9.22 22.34 -15 22 C-15 21.67 -15 21.34 -15 21 C-10.05 21 -5.1 21 0 21 C0 14.07 0 7.14 0 0 Z " fill="#050504" transform="translate(655,371)"/>
<path d="M0 0 C1.35439668 2.70879335 1.06501451 5.00933268 1 8 C0.01 8.33 -0.98 8.66 -2 9 C-2.433125 10.3303125 -2.433125 10.3303125 -2.875 11.6875 C-4.85781176 17.52577907 -9.02131186 21.50146239 -14 25 C-14.66 25 -15.32 25 -16 25 C-16 24.34 -16 23.68 -16 23 C-14.80657548 21.95760439 -13.56863796 20.96590275 -12.3125 20 C-7.57849551 15.99366051 -5.43177716 11.60966776 -3 6 C-2.40449325 4.78737536 -1.80188472 3.57817007 -1.1875 2.375 C-0.795625 1.59125 -0.40375 0.8075 0 0 Z " fill="#EFEEEB" transform="translate(556,604)"/>
<path d="M0 0 C0.66 0.33 1.32 0.66 2 1 C-0.31 3.31 -2.62 5.62 -5 8 C-0.47257536 8.34039377 -0.47257536 8.34039377 4 8 C6.5120439 5.75708588 6.5120439 5.75708588 8 3 C8.66 2.34 9.32 1.68 10 1 C10.66 1.66 11.32 2.32 12 3 C10.01680752 5.95549697 8.01397806 8.08285188 5 10 C-0.02653889 10.90828629 -4.90206598 11.04592733 -10 11 C-6.79239749 7.19364503 -3.59253891 3.45436433 0 0 Z " fill="#6869E7" transform="translate(328,662)"/>
<path d="M0 0 C0.66 0 1.32 0 2 0 C6 5.41176471 6 5.41176471 6 8 C10.65781058 9.88830158 14.66420091 11.14881655 19.6875 11.5625 C20.68136719 11.64628906 21.67523437 11.73007812 22.69921875 11.81640625 C23.45847656 11.87699219 24.21773437 11.93757812 25 12 C23 14 23 14 19.9375 14.3125 C13.34339608 13.78915842 8.03674764 12.63234268 3.5 7.5625 C1.51958739 5.10348768 0.59975213 3.10099114 0 0 Z " fill="#090908" transform="translate(691,645)"/>
<path d="M0 0 C6.27 0 12.54 0 19 0 C19 0.99 19 1.98 19 3 C13.39 3 7.78 3 2 3 C1.67 5.97 1.34 8.94 1 12 C0.67 12 0.34 12 0 12 C0 8.04 0 4.08 0 0 Z " fill="#D1D0CE" transform="translate(500,575)"/>
<path d="M0 0 C2.31 0.33 4.62 0.66 7 1 C7 1.66 7 2.32 7 3 C7.721875 3.226875 8.44375 3.45375 9.1875 3.6875 C12.62334482 5.29089425 14.44616836 7.19701405 17 10 C17.55558594 10.58652344 18.11117187 11.17304688 18.68359375 11.77734375 C19.24175781 12.38707031 19.79992187 12.99679687 20.375 13.625 C20.89835938 14.19476563 21.42171875 14.76453125 21.9609375 15.3515625 C22.30382812 15.89554687 22.64671875 16.43953125 23 17 C22.67 17.99 22.34 18.98 22 20 C21.59910156 19.43152344 21.19820312 18.86304688 20.78515625 18.27734375 C15.16972278 10.65003162 8.73304438 4.80671165 0 1 C0 0.67 0 0.34 0 0 Z " fill="#F5F5F3" transform="translate(738,431)"/>
<path d="M0 0 C4.88765533 1.35768204 6.52591098 3.67034421 9 8 C10.1577506 11.47325181 10.06866652 14.36067448 10 18 C11.32 18.33 12.64 18.66 14 19 C12.125 19.625 12.125 19.625 10 20 C7.71085942 17.71085942 7.61008442 16.79047838 7.0625 13.6875 C5.97075067 8.38228059 4.61893559 5.07929039 0 2 C0 1.34 0 0.68 0 0 Z " fill="#EDEDEB" transform="translate(314,393)"/>
<path d="M0 0 C2.0390625 3.734375 2.0390625 3.734375 1.6875 6.125 C1 8 1 8 0 10 C-0.66 10 -1.32 10 -2 10 C-2.226875 10.598125 -2.45375 11.19625 -2.6875 11.8125 C-4.33811133 14.56351888 -6.1972081 15.52484637 -9 17 C-9.33 16.34 -9.66 15.68 -10 15 C-9.278125 14.566875 -8.55625 14.13375 -7.8125 13.6875 C-3.7548541 9.81019392 -2.08381723 5.14303828 0 0 Z " fill="#141413" transform="translate(626,593)"/>
<path d="M0 0 C2.68777802 -0.0544207 5.37443212 -0.09387266 8.0625 -0.125 C8.81466797 -0.14175781 9.56683594 -0.15851563 10.34179688 -0.17578125 C15.29327709 -0.21865121 19.30414451 0.41600625 24 2 C24 2.66 24 3.32 24 4 C23.37738281 3.84660156 22.75476563 3.69320313 22.11328125 3.53515625 C17.81725228 2.79669205 13.53758048 2.63537838 9.1875 2.4375 C8.30384766 2.39431641 7.42019531 2.35113281 6.50976562 2.30664062 C4.34000377 2.20108464 2.1700209 2.10008929 0 2 C0 1.34 0 0.68 0 0 Z " fill="#070707" transform="translate(300,368)"/>
<path d="M0 0 C0.66 0.33 1.32 0.66 2 1 C0.98679687 1.79664063 0.98679687 1.79664063 -0.046875 2.609375 C-1.38492187 3.66898437 -1.38492187 3.66898437 -2.75 4.75 C-3.63171875 5.44609375 -4.5134375 6.1421875 -5.421875 6.859375 C-7.75847248 8.79945897 -9.8938562 10.81512186 -12 13 C-12.46963359 8.96115115 -12.35683282 7.45878506 -9.8125 4.1875 C-6.97249221 1.97860505 -5.5008767 1.37847316 -2 1 C-1.34 0.67 -0.68 0.34 0 0 Z " fill="#1E1E1C" transform="translate(282,375)"/>
<path d="M0 0 C3.21940676 1.10667107 5.8353297 2.5317993 8.625 4.4375 C13.39987089 7.52927464 18.4990701 8.75622357 24 10 C24 10.33 24 10.66 24 11 C14.79870054 11.800113 6.97453839 7.76157519 0 2 C0 1.34 0 0.68 0 0 Z " fill="#030302" transform="translate(271,501)"/>
<path d="M0 0 C0.59039063 0.20496094 1.18078125 0.40992188 1.7890625 0.62109375 C1.04140625 1.12898437 0.29375 1.636875 -0.4765625 2.16015625 C-7.97300832 7.35484727 -7.97300832 7.35484727 -13.2109375 14.62109375 C-13.8709375 13.96109375 -14.5309375 13.30109375 -15.2109375 12.62109375 C-5.96827805 -1.0228321 -5.96827805 -1.0228321 0 0 Z " fill="#0F0F0E" transform="translate(687.2109375,558.37890625)"/>
<path d="M0 0 C0.66 0.33 1.32 0.66 2 1 C2.43610008 7.86857628 1.8075386 13.12446919 -2 19 C-4.75 21.0625 -4.75 21.0625 -7 22 C-6.00076934 19.84781088 -5.0838972 18.09438435 -3.5 16.3125 C-1.4708504 13.1842277 -1.25587576 10.43342941 -0.8125 6.75 C-0.65394531 5.48671875 -0.49539063 4.2234375 -0.33203125 2.921875 C-0.22246094 1.95765625 -0.11289062 0.9934375 0 0 Z " fill="#F4F4F2" transform="translate(733,466)"/>
<path d="M0 0 C0.99 0.33 1.98 0.66 3 1 C2.48594831 5.96916636 1.76615118 10.29026351 0 15 C-0.99 14.34 -1.98 13.68 -3 13 C-2.01 8.71 -1.02 4.42 0 0 Z " fill="#1A1917" transform="translate(479,419)"/>
<path d="M0 0 C1.64634286 2.96341714 2.55681086 5.63176256 3 9 C2.67 9.66 2.34 10.32 2 11 C2.28241883 13.3400417 2.61250787 15.67504723 3 18 C0.71636622 15.71636622 0.2847151 14.25204532 -0.625 11.1875 C-0.88539063 10.33542969 -1.14578125 9.48335938 -1.4140625 8.60546875 C-2.0044509 5.98020834 -2.10588413 3.68079363 -2 1 C-1.34 0.67 -0.68 0.34 0 0 Z " fill="#1D1E1C" transform="translate(545,436)"/>
<path d="M0 0 C3.4520712 1.1506904 3.76575464 1.82057728 5.6875 4.75 C8.45449964 8.63913299 11.28129683 10.75365336 15.4609375 12.9921875 C15.96882813 13.32476562 16.47671875 13.65734375 17 14 C17 14.66 17 15.32 17 16 C11.70684048 14.51129888 7.73092904 10.91398865 4 7 C3.67 6.01 3.34 5.02 3 4 C2.34 4 1.68 4 1 4 C0.67 2.68 0.34 1.36 0 0 Z " fill="#F4F3F2" transform="translate(264,430)"/>
<path d="M0 0 C5.00681695 1.04793843 7.36336494 2.83098513 10.09765625 6.98046875 C11.62914002 10.40807527 11.32471382 13.29826247 11 17 C10.34 17.33 9.68 17.66 9 18 C8.90203125 17.33613281 8.8040625 16.67226563 8.703125 15.98828125 C7.79232265 10.60983635 6.97866475 6.97866475 3 3 C2.4225 2.401875 1.845 1.80375 1.25 1.1875 C0.8375 0.795625 0.425 0.40375 0 0 Z " fill="#F6F6F4" transform="translate(316,456)"/>
<path d="M0 0 C-0.375 3.125 -0.375 3.125 -1 6 C-1.33 6 -1.66 6 -2 6 C-2 4.02 -2 2.04 -2 0 C-11.24 0 -20.48 0 -30 0 C-30 -0.33 -30 -0.66 -30 -1 C-26.0495047 -1.19224376 -22.09865416 -1.37096681 -18.14697266 -1.53710938 C-16.80240434 -1.59555475 -15.45799202 -1.65771076 -14.11376953 -1.72363281 C-12.18306663 -1.81767443 -10.2516797 -1.89732692 -8.3203125 -1.9765625 C-6.57645264 -2.05511475 -6.57645264 -2.05511475 -4.79736328 -2.13525391 C-2 -2 -2 -2 0 0 Z " fill="#C3C2BD" transform="translate(697,469)"/>
<path d="M0 0 C7.63065446 -0.27636173 14.17761562 0.17946475 21 4 C20.67 4.66 20.34 5.32 20 6 C19.47792969 5.80664062 18.95585938 5.61328125 18.41796875 5.4140625 C12.36073009 3.2712215 6.33891775 2.00711777 0 1 C0 0.67 0 0.34 0 0 Z " fill="#F2F2F1" transform="translate(714,552)"/>
<path d="M0 0 C2.6909628 2.6909628 4.36121132 5.6053663 6 9 C5.01 9.495 5.01 9.495 4 10 C4.66 12.97 5.32 15.94 6 19 C3.4127495 16.4127495 2.93443913 14.11722529 1.875 10.625 C1.52179687 9.48289062 1.16859375 8.34078125 0.8046875 7.1640625 C0 4 0 4 0 0 Z " fill="#1F201E" transform="translate(529,389)"/>
<path d="M0 0 C-0.95421808 1.14926266 -1.91352045 2.29430541 -2.875 3.4375 C-3.40867187 4.07558594 -3.94234375 4.71367188 -4.4921875 5.37109375 C-6 7 -6 7 -8 8 C-8.99 7.34 -9.98 6.68 -11 6 C-9.68 5.34 -8.36 4.68 -7 4 C-7 2.68 -7 1.36 -7 0 C-4.3333581 -1.33332095 -2.83319697 -0.67102033 0 0 Z " fill="#E0DEDF" transform="translate(355,634)"/>
<path d="M0 0 C6.89112013 0.51683401 11.98461732 3.73269448 16.5 8.8125 C16.995 9.534375 17.49 10.25625 18 11 C15.25265942 9.67517132 12.68774959 8.21439281 10.125 6.5625 C6.84303299 4.48515009 3.51228417 2.66833498 0 1 C0 0.67 0 0.34 0 0 Z " fill="#060605" transform="translate(627,557)"/>
<path d="M0 0 C2.6855594 2.6855594 3.06049974 5.37621328 4 9 C4.66 9 5.32 9 6 9 C6.33 10.65 6.66 12.3 7 14 C6.34 14 5.68 14 5 14 C5.33 16.31 5.66 18.62 6 21 C3.74982247 17.62473371 2.86995001 14.36925005 1.875 10.5 C1.60236328 9.48486328 1.60236328 9.48486328 1.32421875 8.44921875 C0.56317822 5.54810937 0 3.0122546 0 0 Z " fill="#20201E" transform="translate(548,455)"/>
<path d="M0 0 C0.33 0 0.66 0 1 0 C1 3.96 1 7.92 1 12 C-5.75 12 -5.75 12 -9 9 C-6.69 9 -4.38 9 -2 9 C-2.04125 8.071875 -2.0825 7.14375 -2.125 6.1875 C-2 3 -2 3 0 0 Z " fill="#212220" transform="translate(423,500)"/>
<path d="M0 0 C0 3 0 3 -1.64453125 4.68359375 C-2.35996094 5.26238281 -3.07539062 5.84117187 -3.8125 6.4375 C-6.66088407 8.7566761 -8.896319 10.98052096 -11 14 C-11.66 13.67 -12.32 13.34 -13 13 C-9.2430054 7.45396035 -5.65370024 3.61836815 0 0 Z " fill="#0A0A09" transform="translate(688,373)"/>
<path d="M0 0 C0.99 0.33 1.98 0.66 3 1 C2.113125 1.721875 1.22625 2.44375 0.3125 3.1875 C-2.62912698 5.63770224 -5.32699874 8.2566566 -8 11 C-9.33333333 12.33333333 -10.66666667 13.66666667 -12 15 C-12.66 14.67 -13.32 14.34 -14 14 C-9.38 9.38 -4.76 4.76 0 0 Z " fill="#F4F3E7" transform="translate(346,660)"/>
<path d="M0 0 C0.33 0 0.66 0 1 0 C1 4.62 1 9.24 1 14 C0.34 14 -0.32 14 -1 14 C-2.38938077 15.96147874 -3.7260411 17.96166576 -5 20 C-5.33 19.34 -5.66 18.68 -6 18 C-5.28337117 16.05403229 -4.47637581 14.14090096 -3.625 12.25 C-1.77213184 8.13021492 -0.57783819 4.48832456 0 0 Z " fill="#232421" transform="translate(751,641)"/>
<path d="M0 0 C1 3 1 3 1 6 C0.34 6 -0.32 6 -1 6 C-1.04898437 6.63808594 -1.09796875 7.27617187 -1.1484375 7.93359375 C-1.22320312 8.75988281 -1.29796875 9.58617187 -1.375 10.4375 C-1.47941406 11.67306641 -1.47941406 11.67306641 -1.5859375 12.93359375 C-1.72257812 13.61550781 -1.85921875 14.29742187 -2 15 C-2.99 15.495 -2.99 15.495 -4 16 C-3.9278125 15.38511719 -3.855625 14.77023437 -3.78125 14.13671875 C-3.64203125 12.92435547 -3.64203125 12.92435547 -3.5 11.6875 C-3.4071875 10.88699219 -3.314375 10.08648437 -3.21875 9.26171875 C-2.95186537 6.88103445 -2.95186537 6.88103445 -3 4 C-1.5 1.8125 -1.5 1.8125 0 0 Z " fill="#1F1F1D" transform="translate(471,457)"/>
<path d="M0 0 C0.33 1.32 0.66 2.64 1 4 C1.66 4 2.32 4 3 4 C3 7.96 3 11.92 3 16 C2.01 16 1.02 16 0 16 C0 10.72 0 5.44 0 0 Z " fill="#201F1C" transform="translate(262,402)"/>
<path d="M0 0 C1.73030291 0.28484846 3.45920714 0.57819938 5.1875 0.875 C6.15042969 1.03742188 7.11335937 1.19984375 8.10546875 1.3671875 C10.91032604 1.98039517 13.37224747 2.85666343 16 4 C16 4.33 16 4.66 16 5 C10.43109483 4.52013969 5.32932432 3.70084819 0 2 C0 1.34 0 0.68 0 0 Z " fill="#090807" transform="translate(705,448)"/>
<path d="M0 0 C4.58178876 1.36215341 5.60891881 3.01486468 8 7 C10.57099402 8.34689915 10.57099402 8.34689915 13 9 C10 10 10 10 8.2109375 9.328125 C7.30214844 8.79445313 7.30214844 8.79445313 6.375 8.25 C5.45847656 7.73179687 5.45847656 7.73179687 4.5234375 7.203125 C3 6 3 6 2 3 C1.34 3 0.68 3 0 3 C0 2.01 0 1.02 0 0 Z " fill="#1F201E" transform="translate(698,417)"/>
<path d="M0 0 C3.63 0 7.26 0 11 0 C11 0.33 11 0.66 11 1 C12.65 1.33 14.3 1.66 16 2 C16 2.33 16 2.66 16 3 C11.05 3 6.1 3 1 3 C0.67 2.01 0.34 1.02 0 0 Z " fill="#E0DFDB" transform="translate(502,610)"/>
<path d="M0 0 C1.65 1.65 3.3 3.3 5 5 C4.01 5.66 3.02 6.32 2 7 C1.41312216 10.34613512 1.41312216 10.34613512 1.3125 14.125 C1.24675781 15.40632813 1.18101562 16.68765625 1.11328125 18.0078125 C1.07589844 18.99523437 1.03851563 19.98265625 1 21 C0.67 21 0.34 21 0 21 C0 14.07 0 7.14 0 0 Z " fill="#E2E1DB" transform="translate(425,472)"/>
<path d="M0 0 C2.475 0.495 2.475 0.495 5 1 C5 1.66 5 2.32 5 3 C6.175625 3.185625 6.175625 3.185625 7.375 3.375 C10 4 10 4 12 6 C6.64285714 7.33928571 6.64285714 7.33928571 3.75 5.8125 C1.96859311 3.96747143 0.97621559 2.35918768 0 0 Z " fill="#1E1F1D" transform="translate(686,439)"/>
<path d="M0 0 C5.85272256 0.45020943 10.08220119 3.03839227 15 6 C15 6.66 15 7.32 15 8 C11.45756548 6.63408831 8.07372071 5.09068516 4.6875 3.375 C3.80449219 2.92898438 2.92148437 2.48296875 2.01171875 2.0234375 C1.34785156 1.68570312 0.68398438 1.34796875 0 1 C0 0.67 0 0.34 0 0 Z " fill="#090908" transform="translate(324,431)"/>
<path d="M0 0 C4.71403788 0.47939368 8.66579301 0.96834048 13 3 C12.67 3.99 12.34 4.98 12 6 C10.783125 5.525625 9.56625 5.05125 8.3125 4.5625 C5.22731209 3.40075962 2.26878802 2.51074813 -1 2 C-0.67 1.34 -0.34 0.68 0 0 Z " fill="#0C0C0B" transform="translate(721,554)"/>
<path d="M0 0 C0.33 0.99 0.66 1.98 1 3 C-0.109375 4.9375 -0.109375 4.9375 -1.75 7 C-2.28109375 7.680625 -2.8121875 8.36125 -3.359375 9.0625 C-4.83392376 10.80387186 -6.35806315 12.41741026 -8 14 C-8.66 13.67 -9.32 13.34 -10 13 C-9.61328125 12.56429687 -9.2265625 12.12859375 -8.828125 11.6796875 C-5.56015499 7.94255348 -2.65859411 4.1923984 0 0 Z " fill="#080808" transform="translate(750,654)"/>
<path d="M0 0 C0.33 0.99 0.66 1.98 1 3 C-1.88800508 6.99224232 -4.94441828 10.15013177 -9 13 C-9.66 13 -10.32 13 -11 13 C-11 12.34 -11 11.68 -11 11 C-9.35546875 9.4140625 -9.35546875 9.4140625 -7.1875 7.625 C-4.35520187 5.2828081 -2.10737561 3.01813415 0 0 Z " fill="#F9F9F7" transform="translate(551,616)"/>
<path d="M0 0 C3.02214861 1.51107431 4.15310978 4.22966467 6 7 C5.66906957 9.79155827 4.79958861 12.29028304 4 15 C3.67 15 3.34 15 3 15 C2.01 10.05 1.02 5.1 0 0 Z " fill="#212321" transform="translate(348,451)"/>
<path d="M0 0 C0.66 0 1.32 0 2 0 C3.26305335 5.07476794 4.27036084 9.72796354 4 15 C0.73154287 10.09731431 -0.27944109 5.86826297 0 0 Z " fill="#F5F5F3" transform="translate(509,402)"/>
<path d="M0 0 C0.99 0 1.98 0 3 0 C3.66 2.64 4.32 5.28 5 8 C4.34 8 3.68 8 3 8 C2.34 8.66 1.68 9.32 1 10 C0.67 6.7 0.34 3.4 0 0 Z " fill="#1F1F1D" transform="translate(731,400)"/>
<path d="M0 0 C0 0.33 0 0.66 0 1 C-5.03854106 1.83211276 -9.8125662 2.1078534 -14.9375 2.0625 C-15.62134766 2.05798828 -16.30519531 2.05347656 -17.00976562 2.04882812 C-18.67321604 2.0371956 -20.3366205 2.01926694 -22 2 C-21.67 1.34 -21.34 0.68 -21 0 C-13.95416472 -1.31537509 -7.04583402 -1.0568751 0 0 Z " fill="#202220" transform="translate(726,369)"/>
<path d="M0 0 C0.66 0.33 1.32 0.66 2 1 C-1.63 4.63 -5.26 8.26 -9 12 C-9 7.8407692 -6.75316432 5.85455565 -4 3 C-1.6875 1.125 -1.6875 1.125 0 0 Z " fill="#222220" transform="translate(684,561)"/>
<path d="M0 0 C5.31427203 2.70923672 8.42148591 5.22864787 12 10 C10.68 9.67 9.36 9.34 8 9 C8 8.34 8 7.68 8 7 C7.4225 6.731875 6.845 6.46375 6.25 6.1875 C3.94449957 4.97070811 1.97943808 3.69666121 0 2 C0 1.34 0 0.68 0 0 Z " fill="#090908" transform="translate(744,435)"/>
<path d="M0 0 C0.66 0.33 1.32 0.66 2 1 C0.59148053 2.32123942 -0.82715741 3.63169769 -2.25 4.9375 C-3.03890625 5.66839844 -3.8278125 6.39929688 -4.640625 7.15234375 C-6.89044414 8.91420543 -8.21628554 9.59776603 -11 10 C-11 9.34 -11 8.68 -11 8 C-9.1015625 6.5625 -9.1015625 6.5625 -6.625 5 C-4.15047838 3.42887516 -2.07616959 2.07616959 0 0 Z " fill="#080807" transform="translate(751,497)"/>
<path d="M0 0 C0.99 0.33 1.98 0.66 3 1 C2.67 4.3 2.34 7.6 2 11 C1.34 11 0.68 11 0 11 C0.020625 10.21625 0.04125 9.4325 0.0625 8.625 C0.18684063 6.01885039 0.18684063 6.01885039 -1 4 C-0.5625 1.875 -0.5625 1.875 0 0 Z " fill="#20201E" transform="translate(485,397)"/>
<path d="M0 0 C-1.9969261 1.56901337 -3.79381863 2.90903763 -6.125 3.9375 C-8.45617654 5.25850004 -9.02148176 6.55370439 -10 9 C-10.66 9 -11.32 9 -12 9 C-10.13346484 2.89133947 -6.64007326 -0.75886552 0 0 Z " fill="#F7F7F5" transform="translate(303,392)"/>
<path d="M0 0 C-2.97 2.475 -2.97 2.475 -6 5 C-6 4.34 -6 3.68 -6 3 C-6.99 3 -7.98 3 -9 3 C-8.67 2.01 -8.34 1.02 -8 0 C-2.25 -1.125 -2.25 -1.125 0 0 Z " fill="#3E40E2" transform="translate(419,589)"/>
<path d="M0 0 C2.71928517 0.37507382 3.84218661 0.84218661 5.8125 2.8125 C7 5 7 5 6.57421875 7.13671875 C6.38472656 7.75160156 6.19523438 8.36648438 6 9 C4.99406757 7.8803014 3.9954151 6.7540588 3 5.625 C2.443125 4.99851562 1.88625 4.37203125 1.3125 3.7265625 C0 2 0 2 0 0 Z " fill="#E0DFDB" transform="translate(718,575)"/>
<path d="M0 0 C4.5076467 0.53031138 7.41954788 2.25221116 11 5 C11 5.66 11 6.32 11 7 C10.01 7 9.02 7 8 7 C8 6.34 8 5.68 8 5 C6.8553125 4.5978125 6.8553125 4.5978125 5.6875 4.1875 C3.12619116 3.05575888 1.80307062 2.08776599 0 0 Z " fill="#F1F1EE" transform="translate(272,505)"/>
<path d="M0 0 C1.45047396 2.90094791 0.45356803 4.55972596 -0.4375 7.625 C-0.86869141 9.12933594 -0.86869141 9.12933594 -1.30859375 10.6640625 C-1.53675781 11.43492187 -1.76492188 12.20578125 -2 13 C-2.66 13 -3.32 13 -4 13 C-3.71682074 11.39431334 -3.42312209 9.79047953 -3.125 8.1875 C-2.96257812 7.29417969 -2.80015625 6.40085937 -2.6328125 5.48046875 C-2 3 -2 3 0 0 Z " fill="#100F0E" transform="translate(485,402)"/>
<path d="M0 0 C0.99 0.33 1.98 0.66 3 1 C-0.465 3.97 -0.465 3.97 -4 7 C-4.33 5.68 -4.66 4.36 -5 3 C-2.6875 1.4375 -2.6875 1.4375 0 0 Z " fill="#D8D7E1" transform="translate(344,642)"/>
<path d="M0 0 C-0.639375 0.309375 -1.27875 0.61875 -1.9375 0.9375 C-3.93610821 1.8345163 -3.93610821 1.8345163 -5 3 C-7.375 3.25 -7.375 3.25 -10 3 C-11.6640625 1.484375 -11.6640625 1.484375 -13 0 C-11.58456585 -0.19658808 -10.16755969 -0.38187546 -8.75 -0.5625 C-7.96109375 -0.66691406 -7.1721875 -0.77132812 -6.359375 -0.87890625 C-3.99467126 -1.00027349 -2.2488963 -0.69633257 0 0 Z " fill="#DEDED9" transform="translate(531,632)"/>
<path d="M0 0 C-1.5830577 4.2742558 -4.50568404 6.26531794 -8 9 C-8 8.01 -8 7.02 -8 6 C-6.68 5.34 -5.36 4.68 -4 4 C-4 3.01 -4 2.02 -4 1 C-2 0 -2 0 0 0 Z " fill="#DAD9E0" transform="translate(398,591)"/>
<path d="M0 0 C0.66 0.33 1.32 0.66 2 1 C-1.625 5.875 -1.625 5.875 -5 7 C-5 6.34 -5 5.68 -5 5 C-5.66 4.67 -6.32 4.34 -7 4 C-3.25 1 -3.25 1 -1 1 C-0.67 0.67 -0.34 0.34 0 0 Z " fill="#E1DEDF" transform="translate(416,594)"/>
<path d="M0 0 C5.94 0.33 11.88 0.66 18 1 C18 1.33 18 1.66 18 2 C16.86820312 2.04898437 15.73640625 2.09796875 14.5703125 2.1484375 C13.08851661 2.22346514 11.606747 2.29901297 10.125 2.375 C9.37863281 2.4059375 8.63226563 2.436875 7.86328125 2.46875 C3.46526812 2.55643831 3.46526812 2.55643831 0 5 C0 3.35 0 1.7 0 0 Z " fill="#F2F1ED" transform="translate(488,480)"/>
<path d="M0 0 C1.953125 0.7109375 1.953125 0.7109375 4 2 C4.609375 4.1640625 4.609375 4.1640625 4.75 6.625 C4.80671875 7.44226563 4.8634375 8.25953125 4.921875 9.1015625 C4.94765625 9.72804688 4.9734375 10.35453125 5 11 C3.0625 10 3.0625 10 1 8 C0.33450549 5.30075428 0.18319237 2.79368363 0 0 Z " fill="#21211F" transform="translate(758,453)"/>
<path d="M0 0 C5.29158974 1.40071493 7.77478044 4.85487245 11 9 C8 9 8 9 5.5 6.75 C3.51326265 4.56458892 1.69695043 2.41145588 0 0 Z " fill="#070706" transform="translate(735,559)"/>
<path d="M0 0 C2.97 0.495 2.97 0.495 6 1 C6 1.66 6 2.32 6 3 C6.99 3.66 7.98 4.32 9 5 C7.741875 4.87625 6.48375 4.7525 5.1875 4.625 C4.12595703 4.52058594 4.12595703 4.52058594 3.04296875 4.4140625 C1 4 1 4 -2 2 C-1.34 2 -0.68 2 0 2 C0 1.34 0 0.68 0 0 Z " fill="#E2E1DC" transform="translate(292,449)"/>
<path d="M0 0 C2.5 1.375 2.5 1.375 5 3 C5 3.66 5 4.32 5 5 C5.804375 5.28875 6.60875 5.5775 7.4375 5.875 C10 7 10 7 11 9 C7.66864109 8.40300869 5.78724333 7.27987719 3.25 5.0625 C2.63640625 4.53785156 2.0228125 4.01320313 1.390625 3.47265625 C0 2 0 2 0 0 Z " fill="#0A0909" transform="translate(678,434)"/>
<path d="M0 0 C2.64 0.33 5.28 0.66 8 1 C6.875 2.5625 6.875 2.5625 5 4 C1.8125 3.6875 1.8125 3.6875 -1 3 C-0.67 2.01 -0.34 1.02 0 0 Z " fill="#20201D" transform="translate(695,673)"/>
<path d="M0 0 C0.66 0.33 1.32 0.66 2 1 C2 3.97 2 6.94 2 10 C1.01 10.495 1.01 10.495 0 11 C-0.66 10.34 -1.32 9.68 -2 9 C-1.34 9 -0.68 9 0 9 C0 6.03 0 3.06 0 0 Z " fill="#F7F6F3" transform="translate(500,668)"/>
<path d="M0 0 C0.99 0.495 0.99 0.495 2 1 C2.4140625 3.06640625 2.4140625 3.06640625 2.625 5.5625 C2.69976563 6.38878906 2.77453125 7.21507812 2.8515625 8.06640625 C2.92503906 9.02353516 2.92503906 9.02353516 3 10 C2.01 10.33 1.02 10.66 0 11 C0 7.37 0 3.74 0 0 Z " fill="#E1E1DE" transform="translate(665,640)"/>
<path d="M0 0 C0.33 0.66 0.66 1.32 1 2 C-1.38957269 5.24299151 -3.2047869 7.50902342 -7 9 C-7.33 8.34 -7.66 7.68 -8 7 C-7.236875 6.401875 -6.47375 5.80375 -5.6875 5.1875 C-3.6516425 3.53040668 -1.8021721 1.89702326 0 0 Z " fill="#0A0A09" transform="translate(624,601)"/>
<path d="M0 0 C0.33 0 0.66 0 1 0 C1.33 4.95 1.66 9.9 2 15 C0.02 14.34 -1.96 13.68 -4 13 C-2.68 12.67 -1.36 12.34 0 12 C0 8.04 0 4.08 0 0 Z " fill="#0C0C0B" transform="translate(621,497)"/>
<path d="M0 0 C1.46726798 3.81489674 0.43336419 6.29011622 -1 10 C-2.5625 8.8125 -2.5625 8.8125 -4 7 C-3.6875 4.3125 -3.6875 4.3125 -3 2 C-2.01 2 -1.02 2 0 2 C0 1.34 0 0.68 0 0 Z " fill="#20211F" transform="translate(465,478)"/>
<path d="M0 0 C0.99 0 1.98 0 3 0 C3 0.66 3 1.32 3 2 C3.66 2 4.32 2 5 2 C5.66 3.65 6.32 5.3 7 7 C1.25 4.375 1.25 4.375 -1 1 C-0.67 0.67 -0.34 0.34 0 0 Z " fill="#1F201E" transform="translate(729,455)"/>
<path d="M0 0 C3.3 1.65 6.6 3.3 10 5 C9.67 5.66 9.34 6.32 9 7 C7.68176698 6.40844669 6.37052949 5.80128537 5.0625 5.1875 C4.33160156 4.85105469 3.60070312 4.51460937 2.84765625 4.16796875 C1 3 1 3 0 0 Z " fill="#111110" transform="translate(684,669)"/>
<path d="M0 0 C1.92759992 1.67617384 2.90534623 2.59772148 3.5 5.125 C3.665 5.74375 3.83 6.3625 4 7 C4.99 7.33 5.98 7.66 7 8 C5.68 8.33 4.36 8.66 3 9 C0 3.375 0 3.375 0 0 Z " fill="#090908" transform="translate(624,666)"/>
<path d="M0 0 C0.66 0 1.32 0 2 0 C0.61811547 3.21043882 -0.92421903 5.04936365 -3.625 7.25 C-4.57246094 8.03117187 -4.57246094 8.03117187 -5.5390625 8.828125 C-6.02117187 9.21484375 -6.50328125 9.6015625 -7 10 C-7 9.01 -7 8.02 -7 7 C-5.36739286 5.62517293 -3.69774938 4.29352333 -2 3 C-1.34 2.01 -0.68 1.02 0 0 Z " fill="#080706" transform="translate(344,495)"/>
<path d="M0 0 C0.66 0 1.32 0 2 0 C0.50902342 3.7952131 -1.75700849 5.61042731 -5 8 C-5 5 -5 5 -3.625 3.3125 C-2 2 -2 2 0 2 C0 1.34 0 0.68 0 0 Z " fill="#D4D4E0" transform="translate(337,649)"/>
<path d="M0 0 C0 3 0 3 -1.53125 4.60546875 C-2.1809375 5.12753906 -2.830625 5.64960937 -3.5 6.1875 C-4.1496875 6.71730469 -4.799375 7.24710938 -5.46875 7.79296875 C-5.9740625 8.19128906 -6.479375 8.58960938 -7 9 C-7.66 8.67 -8.32 8.34 -9 8 C-8.360625 7.731875 -7.72125 7.46375 -7.0625 7.1875 C-4.66868314 6.11332248 -4.66868314 6.11332248 -4 3 C-1.9375 1.3125 -1.9375 1.3125 0 0 Z " fill="#2E30E2" transform="translate(392,598)"/>
<path d="M0 0 C0 0.66 0 1.32 0 2 C-3.3 2.33 -6.6 2.66 -10 3 C-9 1 -9 1 -7.25 0.375 C-4.79549443 -0.03408426 -2.4840589 -0.06900164 0 0 Z " fill="#080807" transform="translate(734,509)"/>
<path d="M0 0 C0.66 0.33 1.32 0.66 2 1 C1.01 3.97 0.02 6.94 -1 10 C-1.99 9.34 -2.98 8.68 -4 8 C-2.66666667 5.33333333 -1.33333333 2.66666667 0 0 Z " fill="#21211E" transform="translate(480,424)"/>
<path d="M0 0 C0.66 1.32 1.32 2.64 2 4 C2.99 4 3.98 4 5 4 C5.33 5.32 5.66 6.64 6 8 C5.01 8.66 4.02 9.32 3 10 C0 3.375 0 3.375 0 0 Z " fill="#1E1F1E" transform="translate(344,390)"/>
<path d="M0 0 C0 3 0 3 -1.53125 4.60546875 C-2.1809375 5.12753906 -2.830625 5.64960938 -3.5 6.1875 C-4.1496875 6.71730469 -4.799375 7.24710937 -5.46875 7.79296875 C-5.9740625 8.19128906 -6.479375 8.58960938 -7 9 C-7.66 8.67 -8.32 8.34 -9 8 C-6.03 5.36 -3.06 2.72 0 0 Z " fill="#F2F2F1" transform="translate(686,372)"/>
<path d="M0 0 C-0.99 1.485 -0.99 1.485 -2 3 C-4.97 2.67 -7.94 2.34 -11 2 C-11 1.67 -11 1.34 -11 1 C-9.5437328 0.63743142 -8.08488815 0.28520207 -6.625 -0.0625 C-5.40683594 -0.35833984 -5.40683594 -0.35833984 -4.1640625 -0.66015625 C-2 -1 -2 -1 0 0 Z " fill="#D4D4D0" transform="translate(733,675)"/>
<path d="M0 0 C3 1 3 1 3.94921875 2.84765625 C4.19285156 3.57855469 4.43648437 4.30945313 4.6875 5.0625 C4.93886719 5.79597656 5.19023438 6.52945313 5.44921875 7.28515625 C5.63097656 7.85105469 5.81273437 8.41695312 6 9 C3 8 3 8 1.3125 5.0625 C0 2 0 2 0 0 Z " fill="#100F0D" transform="translate(630,627)"/>
<path d="M0 0 C0.66 0 1.32 0 2 0 C3.49821059 3.37097383 4 5.20442119 4 9 C3.34 9 2.68 9 2 9 C1.34 6.03 0.68 3.06 0 0 Z " fill="#0F0F0E" transform="translate(561,498)"/>
<path d="M0 0 C3 1 3 1 5 3 C6.31747324 3.69748583 7.64914193 4.36959957 9 5 C7 6 7 6 5.0546875 5.44140625 C4.33539063 5.15136719 3.61609375 4.86132812 2.875 4.5625 C2.15054687 4.27503906 1.42609375 3.98757813 0.6796875 3.69140625 C-0.15175781 3.34916016 -0.15175781 3.34916016 -1 3 C-0.67 2.01 -0.34 1.02 0 0 Z " fill="#1E1F1D" transform="translate(322,430)"/>
<path d="M0 0 C2.66735273 2.48952921 4.55746343 4.63408134 6 8 C5.01 8.33 4.02 8.66 3 9 C0 3.375 0 3.375 0 0 Z " fill="#EFEEEC" transform="translate(669,655)"/>
<path d="M0 0 C3.93673644 1.31224548 6.22719294 2.91910327 9 6 C4.9666466 6 3.16482462 4.39120082 0 2 C0 1.34 0 0.68 0 0 Z " fill="#0B0B0A" transform="translate(271,501)"/>
<path d="M0 0 C0.33 0 0.66 0 1 0 C1.33 2.64 1.66 5.28 2 8 C1.01 8 0.02 8 -1 8 C-1.625 5.125 -1.625 5.125 -2 2 C-1.34 1.34 -0.68 0.68 0 0 Z " fill="#E2E1DF" transform="translate(262,418)"/>
<path d="M0 0 C0 0.99 0 1.98 0 3 C-2.86724686 2.42655063 -3.8614515 2.1385485 -6 0 C-3.50907189 -1.24546405 -2.58919267 -0.7767578 0 0 Z " fill="#E4E2DC" transform="translate(160,1021)"/>
<path d="M0 0 C0 0.66 0 1.32 0 2 C0.66 2.33 1.32 2.66 2 3 C0.68 3.99 -0.64 4.98 -2 6 C-2.66 4.35 -3.32 2.7 -4 1 C-2 0 -2 0 0 0 Z " fill="#6263EC" transform="translate(342,658)"/>
<path d="M0 0 C0.33 1.32 0.66 2.64 1 4 C0.01 4.33 -0.98 4.66 -2 5 C-2.66 4.01 -3.32 3.02 -4 2 C-4.66 1.34 -5.32 0.68 -6 0 C-3.50907189 -1.24546405 -2.58919267 -0.7767578 0 0 Z " fill="#E2E1DD" transform="translate(689,507)"/>
<path d="M0 0 C0.33 0 0.66 0 1 0 C0.67 2.97 0.34 5.94 0 9 C-0.66 8.67 -1.32 8.34 -2 8 C-1.125 1.125 -1.125 1.125 0 0 Z " fill="#EFF0ED" transform="translate(485,495)"/>
<path d="M0 0 C1.42944945 2.35438733 2.08661261 3.48032433 1.625 6.25 C1.41875 6.8275 1.2125 7.405 1 8 C0.01 7.01 -0.98 6.02 -2 5 C-1.34 3.35 -0.68 1.7 0 0 Z " fill="#DFDEDC" transform="translate(532,489)"/>
<path d="M0 0 C1.98 0.495 1.98 0.495 4 1 C3.67 1.33 3.34 1.66 3 2 C4.65 2.33 6.3 2.66 8 3 C8 3.33 8 3.66 8 4 C4.625 4.125 4.625 4.125 1 4 C0.34 3.34 -0.32 2.68 -1 2 C-0.67 1.34 -0.34 0.68 0 0 Z " fill="#252523" transform="translate(706,488)"/>
<path d="M0 0 C5.75 -0.125 5.75 -0.125 8 1 C8 1.66 8 2.32 8 3 C5.36 2.67 2.72 2.34 0 2 C0 1.34 0 0.68 0 0 Z " fill="#1F1F1D" transform="translate(311,489)"/>
<path d="M0 0 C0.66 0 1.32 0 2 0 C3.32 2.64 4.64 5.28 6 8 C2.24623848 6.74874616 1.75926711 5.4347596 0 2 C0 1.34 0 0.68 0 0 Z " fill="#10100E" transform="translate(751,384)"/>
</svg>
